<svg xmlns="http://www.w3.org/2000/svg" viewBox="0 0 447.01 194.58"><defs><style>.cls-1{fill:#fff;}</style></defs><title>grany-logo</title><g id="Layer_2" data-name="Layer 2"><g id="Layer_1-2" data-name="Layer 1"><path class="cls-1" d="M445.85,4.2A5.67,5.67,0,0,1,443.68,2c-.77-1.67-1.35-1.77-2.9-.89-3,1.68-5.53,1.88-8.28-.15-1.23-.9-2-.71-2.78.35A5.91,5.91,0,0,1,426,3.42c-2.46.56-2.73.74-2.74,3.19,0,6.57.07,13.14-.28,19.71-.05.78.22,1.53,1.14,1.63a1.23,1.23,0,0,0,1.51-1.22,64.12,64.12,0,0,0,.77-9c0-.8.16-1.69,1.08-1.59s1,1.1.89,1.87a53,53,0,0,1-.62,5.33c-.35,1.82-.08,3.72-.6,5.47-.88,3-.92,6.14-1.32,9.18-.37,2.79-.7,5.66-1.1,8.43-.64,4.51-1.1,9.06-1.87,13.56-.72,4.18-.82,8.46-1.71,12.63-.07.35,0,.87-.49.83s-.4-.53-.47-.9c-.38-2-.59-3.95-.94-5.9-.61-3.45-.59-6.94-1-10.4s-.74-6.92-1.09-10.39-.64-7.15-1.06-10.71c-.39-3.3-.47-6.62-1-9.91-.38-2.34-.43-4.73-.61-7.1-.06-.69.1-1.45.85-1.47s1,.8,1,1.52a10.25,10.25,0,0,0,0,1.92c.34,1.63.07,3.4,1,4.89.27.41.6.79,1.16.64s.47-.61.52-1a30.36,30.36,0,0,0,0-6.25c-.4-3.94-.78-7.9,0-11.86A2.1,2.1,0,0,0,417,3.89a5.22,5.22,0,0,1-3-1.72A14.71,14.71,0,0,0,412.13,0h-.32a3.57,3.57,0,0,1-.49.38,16.36,16.36,0,0,1-15.15.22,1.53,1.53,0,0,0-2.1.31,16.22,16.22,0,0,1-3.87,3,1.3,1.3,0,0,0-.75,1.28c.1,1.31-.17,2.63.27,3.94a37,37,0,0,1,1.17,7.28c.29,2.5,1.19,4.92,1.1,7.48a1.7,1.7,0,0,0,1.54,1.92c1.22.07,1.46-.78,1.52-1.78.07-1.37-.25-2.78.57-4.49,1.17,3.59,1.14,7,1.46,10.26s.81,6.38,1.17,9.57c.73,6.38,1.35,12.76,2.31,19.12.51,3.38.88,6.79,1.41,10.15.62,3.9.8,7.83,1.36,11.73a20,20,0,0,1-1,10.93,1.33,1.33,0,0,0,.57,1.78,5.52,5.52,0,0,1,1.54,7.94c-1.36,2-1.39,2.32.27,4.08a8.45,8.45,0,0,1,1.9,3.61A62,62,0,0,1,408.7,125c.21,17.25.07,34.5.07,51.75V178c0,.58-.27,1.16-.87,1.14s-.5-.7-.5-1.14v-7.49c0-1,0-2-1.41-2a1.63,1.63,0,0,0-1.72,1.88c.25,4.93-1.19,9.76-.81,14.69.12,1.53-.7,3-.46,4.55.11.71.1,1.5,1.06,1.44a4.59,4.59,0,0,1,4.22,2.4c.72,1.06,1.35,1,2.24.44a14.07,14.07,0,0,1,6.57-1.53,16.51,16.51,0,0,1,7.54,1.6,1.45,1.45,0,0,0,2-.29,9.55,9.55,0,0,1,3.47-2.2c.87-.36,2.06,0,2.66-.79s-.06-2-.21-2.91c-.66-4.28-.28-8.58-.36-12.87a21.57,21.57,0,0,0-.54-3.76,1.44,1.44,0,0,0-1.36-1.34c-.88-.07-1.17.48-1.46,1.16a4.29,4.29,0,0,0-.26,1.71v6.7c0,.46.07,1-.58,1.13s-.8-.47-.94-.88a9.26,9.26,0,0,1-.64-3.41c.47-19.5-.84-39,.82-58.5a27.83,27.83,0,0,1,4-13,1.59,1.59,0,0,0,0-2c-1.78-3-1.83-6.62,1.36-8.52a1,1,0,0,0,.36-1.63,3.83,3.83,0,0,1-.37-1.19,23.07,23.07,0,0,1-.32-10c.3-1.83.23-3.68.58-5.5.55-3,.95-6,1.38-9.07.52-3.6,1-7.22,1.5-10.82.43-3,1.07-5.92,1.34-8.9.24-2.69.88-5.3,1.15-8,.35-3.39.94-6.77,1.39-10.15s.87-6.81,1.62-10.17c.11-.5.23-1,.85-.91s.58.76.47,1.16c-.64,2.19-.3,4.42-.32,6.63,0,.81,0,1.74,1,1.89s1.11-1,1.2-1.57c.51-3.59.89-7.21,1.35-10.81a73.06,73.06,0,0,1,1.18-8c.29-1.44.05-2.26-1-3M417.89,22c-.13.3-.46.36-.62.09a2.08,2.08,0,0,1,.14-2.21,1.76,1.76,0,0,1,.48,2.12"/><path class="cls-1" d="M368.22,4a5.76,5.76,0,0,1-3.54-2.52c-.83-1.19-1.54-1-2.51-.47a5.52,5.52,0,0,1-1.14.57c-1.49.4-2.84,1.59-4.53.82A25.2,25.2,0,0,1,353.15,1a1.9,1.9,0,0,0-2.68.48,7.31,7.31,0,0,1-4.32,2.45A1.77,1.77,0,0,0,344.48,6c.12,1.48.43,3,.43,4.4,0,4.71,1.33,9.34.89,14.06a3.31,3.31,0,0,0,.49,2.13,1.4,1.4,0,0,0,1.55.56c.58-.09.63-.56.76-1.05a21.68,21.68,0,0,0,.37-5.21A9.37,9.37,0,0,1,349,19c.14-.64.32-1.56,1.1-1.56s.9.93,1,1.59a27.51,27.51,0,0,1,.08,2.87V87.48c0,.32-.08.71-.45.74s-.42-.36-.49-.68c-.54-2.51-1-5-1.66-7.52-1.35-5.17-1.83-10.48-2.78-15.71-.78-4.36-1.38-8.74-2.07-13.11-.74-4.67-1.55-9.34-2.16-14-.43-3.34-1.16-6.65-1.57-10-.29-2.36-.77-4.68-1-7a63.31,63.31,0,0,0-.95-6.4,18.49,18.49,0,0,1-.38-6.91c.28-1.54-.32-2.24-1.83-2.64a7.67,7.67,0,0,1-4.39-2.35C330.29.32,329.92,0,328.37,1a7.35,7.35,0,0,1-8.16.32,3.21,3.21,0,0,0-3.83.35,8.79,8.79,0,0,1-4.47,2.2,1.87,1.87,0,0,0-1.84,2.27c.45,4,.84,8,1.21,12.07a46.38,46.38,0,0,1,.45,4.87,8.26,8.26,0,0,0,.71,2.41c.1.29.2.66.59.63s.51-.34.59-.63c.35-1.4,1.08-2.7.54-4.28a12.7,12.7,0,0,1-.55-3.72c-.05-1.25.55-2.53,1.82-2.58,1.56-.06,1.19,1.45,1.19,2.43q0,28.76,0,57.49a84,84,0,0,1-.91,11.65A8.29,8.29,0,0,1,314,91c-1,1.15-.79,2.06-.09,3.26,1.09,1.87,2.29,4,.92,6.06-1.63,2.43-1.21,4.38,0,6.83,1.54,3.14,1.63,6.8,1.67,10.2.18,17.51,0,35,0,52.54,0,2.54-.34,5.08,0,7.62.15.94,0,2.23-1.05,2.27s-1.13-1.17-1.12-2.12c0-2.29,0-4.57,0-6.85a7.69,7.69,0,0,0,0-1c-.09-.74-.35-1.36-1.25-1.32s-1,.68-1.09,1.32a72.4,72.4,0,0,0-.8,10.4,11,11,0,0,1-.22,1.71c-.29,2.3-.46,4.62-.63,6.92-.05.6.18,1.26.95,1.23a11.21,11.21,0,0,1,4.79.85,3.65,3.65,0,0,0,2-.05,11,11,0,0,1,6.39.08,4.48,4.48,0,0,0,4.2-.59,11.68,11.68,0,0,1,1.41-.72c1.84-.92,3.16-2.14,2.75-4.47a4.17,4.17,0,0,1,.08-1.89c1.32-4.34.34-8.84.93-13.23a1.59,1.59,0,0,0-1.3-1.84,1.09,1.09,0,0,0-.26,0c-1.11,0-1.41.9-1.4,1.92,0,2.23,0,4.46,0,6.7a2.06,2.06,0,0,1-.22,1.38c-.22.28-.23.79-.69.79s-.55-.48-.64-.79a13.76,13.76,0,0,1-.64-4.68c.13-6.21.41-12.42.25-18.62-.12-4.51.28-9,.15-13.5-.17-5.93-.1-11.87-.32-17.8a98.76,98.76,0,0,1,.37-12.52,21.11,21.11,0,0,1,1.2-6.2,3.17,3.17,0,0,0-.39-3.26c-1.75-2.58-1.49-5.17.13-7.71.83-1.31,1.56-1.32,2.32.06a8.52,8.52,0,0,1,.34,7.62,3.26,3.26,0,0,0,.3,3.64,13,13,0,0,1,2,4.76c1,3.71,1.5,7.5,2.18,11.26.56,3.1.86,6.25,1.3,9.35.56,3.88,1.2,7.79,1.45,11.73.17,2.67.59,5.33.93,8q.75,6,1.54,12c.36,2.65.64,5.32,1.15,8,.57,2.95.68,5.94,1.24,8.89.7,3.65.62,7.42,1.66,11,.25.83.52,1.16,1.36,1.14a7.42,7.42,0,0,1,5.5,2.49c.81.83,1.27.88,2,.08a9.63,9.63,0,0,1,5.41-3.13,1.64,1.64,0,0,0,1.55-1.87c-.14-1.75.08-3.49.11-5.23.22-13.05-.27-26.09.39-39.13.37-7.31-.2-14.63.36-22,.4-5.16.69-10.33,2.15-15.31.76-2.58,1.67-5-.51-7.42a4.09,4.09,0,0,1,.19-5.43c1.32-1.59,1.05-2.9.37-4.48a23.27,23.27,0,0,1-2.09-7.6c-.25-4.3-.68-8.59-.56-12.93.24-8.39.07-16.78.07-25.16q0-4.36,0-8.73c0-4,0-7.93-.14-11.89a21.45,21.45,0,0,1,.48-5.82c.17-.69.54-1.24,1.35-1a1.22,1.22,0,0,1,.82,1.52h0c-.44,1.9-.14,3.8-.21,5.7,0,1.11.15,2.42,1.45,2.45s1-1.42,1.16-2.28c.42-1.88,0-3.83.2-5.69a79.85,79.85,0,0,0,.71-9,7.87,7.87,0,0,1,.58-3.25c.6-1.3.19-2.21-1.06-2.47M331.78,90.7a.58.58,0,0,1-.55.62h0a.68.68,0,0,1-.7-.51,21.4,21.4,0,0,1-1.62-7.37c-.07-5.62,0-11.24,0-16.86a1.82,1.82,0,0,1,.34-1.35,2,2,0,0,1,1,1.59C330.7,73.2,331.84,79.54,332,86c0,1.56-.16,3.15-.26,4.73"/><path class="cls-1" d="M207.79,177.66c-.64-2.19-.32-4.43-.47-6.64-.06-1-.09-1.93-1.27-1.93s-1.28,1-1.35,2c0,.43,0,.85,0,1.28v5.89a1.24,1.24,0,0,1-1,1.41c-.74.13-.84-.51-1.09-1s-.28-.74-.54-.94c-2-1.56-1.88-3.85-1.92-6-.09-4.61-.44-9.2-.71-13.8-.2-3.53-.59-7.06-.92-10.59-.28-3-.25-6.12-.47-9.19-.05-.7-.7-1.24-.49-2,1-3.49,0-6.93-.35-10.36s-.26-7.11-.66-10.67c-.29-2.54.47-5.3.64-8a5.83,5.83,0,0,1,1.65-3.87c1.2-1.09.86-2,.16-3-.42-.6-.86-1.2-1.33-1.77-1.56-1.88-1.24-5.06.89-6.26,1.28-.72,1-1.27.49-2.21-.92-1.71-2.16-3.24-2.78-5.13a49.51,49.51,0,0,1-1.95-10.89c-.61-6.48-.84-13-1.36-19.49-.22-2.75-.17-5.52-.43-8.26-.69-7.38-1.09-14.77-1.55-22.16-.17-2.64-.57-5.27-.64-7.91-.08-3.18-1-6.42.57-9.51a1.15,1.15,0,0,0-.19-1.35,13.12,13.12,0,0,1-2.2-3.66c-.42-.83-.91-1.06-1.77-.51a6.53,6.53,0,0,1-2.15,1c-3.85.71-7.66.75-11.29-1a1.23,1.23,0,0,0-2,.81A3.91,3.91,0,0,1,169.4,4.4,2.7,2.7,0,0,0,168,6.76c-.52,3.9-.17,7.87-.85,11.78-.64,3.59-.32,7.27-.74,10.9-.62,5.23-.86,10.53-1.21,15.77-.4,5.84-1,11.67-1.32,17.51a156.2,156.2,0,0,1-1.72,19.07c-.58,3.27-.74,6.75-3.06,9.51a1.41,1.41,0,0,0-.09,1.89,6.44,6.44,0,0,1,0,8.44,2.12,2.12,0,0,0-.11,2.5,14.82,14.82,0,0,1,1.65,7.15c0,5.82.12,11.63-.37,17.45-.32,3.93-.43,7.9-.79,11.84-.18,1.93-.46,7.84-.46,9.79-.39,9-1.28,19.16-1.15,28.1-.75.4-1,1.57-2,1.09s-.67-1.34-.69-2.12V176c0-1.85,0-3.7,0-5.56a1.31,1.31,0,0,0-1-1.32c-.44-.13-.84,0-.78.61h0V170a22.6,22.6,0,0,0-.6,5.12c.05,1.16-.2,2.31-.23,3.48-.1,3.51-.19,7.05-.5,10.57,0,.45.09,1,.58,1,1.94.2,3.87,1,5.82.34a13.61,13.61,0,0,1,7.46-.17c3.62.75,5.67-1.12,6.09-4.51a6.89,6.89,0,0,1,.28-2.35,16,16,0,0,0,1.43-8.17,9.11,9.11,0,0,1,.32-3.62,5,5,0,0,0,0-2,1.06,1.06,0,0,0-1.14-1.08,1,1,0,0,0-1.11,1.1c0,.58,0,1.17,0,1.75-.16,2-.32,4-.57,6-.06.5-.1,1.31-.88,1.31s-.64-.72-.83-1.18c-.61-1.44.08-2.82.15-4.23.36-7,1-14.06.75-21.12a10.17,10.17,0,0,1,.55-3.28,3.25,3.25,0,0,1,3.49-2.59c1.49,0,3,0,4.47-.05,2.75,0,3,.18,3.81,2.77a12.79,12.79,0,0,1,.6,2.44c.42,4.08,1,8.16,1.11,12.26.18,4.65.31,9.29.77,13.92.07.71,0,1.6-.81,1.65s-.86-.84-.8-1.45c.21-2.19-.49-4.31-.48-6.48a3.07,3.07,0,0,0-.37-1.19.91.91,0,0,0-1.17-.56,1,1,0,0,0-.7,1c.15,6.24-.5,12.49.36,18.71.12.9.55,1.28,1.52,1.06a3.46,3.46,0,0,1,3.15.64,2.65,2.65,0,0,0,2.56.37,24.8,24.8,0,0,1,11.61-.46c3.87.82,6.92-1.43,7-5.36a25.4,25.4,0,0,1,.27-4.09c.22-1.22.91-2.48.55-3.72M175.65,74.13c.2-1.94-.07-3.93.08-5.88.26-3.66.67-7.3,1.05-11.17.79.58.6,1.15.63,1.63.06,1.11.14,2.24.09,3.34-.25,6.77.47,13.52.47,20.29,0,1.92-.58,3.76-.48,5.67,0,.34,0,.83-.52.8s-.32-.47-.41-.75c-1.59-4.57-1.42-9.23-.91-13.93m3.19,23.69a6.71,6.71,0,0,1-1,3.17c-.42.71-.92.79-1.48.07-1.31-1.63-1.45-5.45-.22-7.22.69-1,1.4-.76,1.75.19a36.67,36.67,0,0,1,.9,3.79Zm1.21,27.54c-.72,1.63-2.43,1.51-3.92,1.33-1.77-.21-2.37-1.69-2.82-3.09a8.06,8.06,0,0,1-.46-3.3c.44-2.75.37-5.56,1-8.32a64.68,64.68,0,0,1,1.85-7c.2-.6.34-1.33,1.09-1.4s1.09.68,1.25,1.25c.56,2,1,4,1.52,6.09.69,3,.79,6.13,1.2,9.18a9.65,9.65,0,0,1-.69,5.28Z"/><path class="cls-1" d="M287.24,21.77a5.89,5.89,0,0,1-.66,3.13c-.11.27-.19.7-.58.63a.79.79,0,0,1-.64-.8,19.45,19.45,0,0,1-.06-4c0-.29.07-.73.05-1A.92.92,0,0,1,286,18.6c.53-.1.64.42.82.79a4.54,4.54,0,0,1,.38,2.38"/><path class="cls-1" d="M287.77,7a3.47,3.47,0,0,0-1.35,3.19,8,8,0,0,1-.79,3.68A2,2,0,0,1,284,15.22c-2.58.54-3.3,1.36-3.32,4,0,2.76,0,5.52,0,8.29,0,15.67-.08,31.34,0,47A39.34,39.34,0,0,0,282,83.69a34.81,34.81,0,0,0,2.14,5.48,2.48,2.48,0,0,1-.41,2.78c-2.07,2.69-2.35,4.94-1,6.85.52.73,1.11,1.42,1.66,2.13.82,1.07,1.25,2.07-.16,3.09a4.28,4.28,0,0,0-1.46,2.93,105.55,105.55,0,0,0-1.84,14c-.29,5.67-.08,11.33-.26,17-.48,15.09-.38,30.19-.42,45.3,0,4.25-2.05,6.72-6.31,7.81a2.19,2.19,0,0,1-2-.32,3.8,3.8,0,0,0-4.18-.34c-.91.4-1.27.14-1.43-.75-.41-2.37-1-4.72-1.19-7.11-.39-4.15-.93-8.24-1.59-12.33-.41-2.49-.53-5-.89-7.51-.39-2.65-.7-5.31-1-7.95s-.81-5.11-1-7.66a69.32,69.32,0,0,0-1.47-9.49c-.4-1.87-.16-3.75-.53-5.64-.67-3.44-.73-7-1.36-10.46-.59-3.23-1-6.5-1.85-9.7-.72-2.71-1.39-5.38-3.08-7.66a1.32,1.32,0,0,1,.06-1.59,8.53,8.53,0,0,0-.32-9,4.78,4.78,0,0,1-.42-3.52,29.18,29.18,0,0,0-.43-10.66c-.32-1.64-.17-3.34-.49-5-.88-4.75-.46-9.65-1.61-14.39a13.21,13.21,0,0,1-.06-3c0-.44,0-.89-.61-.93s-.77.48-.72,1c.49,4.4-1.71,8.53-1.39,12.87.26,3.54-.13,7.08.36,10.61.32,2.2.24,4.43,1,6.57.48,1.34,1.66,2.33,1.8,3.83.05.45.2.68-.34,1a5.15,5.15,0,0,0-1.67,7.61,18.59,18.59,0,0,1,1,1.59c.6,1.07,1.05,1.94-.14,3.17-1.5,1.56-1.22,3.86-1.48,5.88-.59,4.7-.25,9.43-.49,14.14-.12,2.43.14,4.83.1,7.24-.1,5.69,0,11.38,0,17.08v25.7a3.36,3.36,0,0,0,1.37,3.19,2.44,2.44,0,0,1,.83,1.32c.19.5.45,1,1.13.88a1.18,1.18,0,0,0,.91-1.33c0-2.49,0-5,0-7.48,0-.77.2-1.43.93-1.67a1.27,1.27,0,0,1,1.81,1.2c.09,2.7,0,5.42,0,8.11,0,.17-.21.32-.32.5-.1,0-.23,1-.32.93.44.4.18.77,0,1.15a11.22,11.22,0,0,0-1,5.08,2.58,2.58,0,0,1-1.64,2.79,16.39,16.39,0,0,0-2.34,1.33c-1.77,1.22-3.54.34-5.19-.12s-3.24,0-4.81.34a3.67,3.67,0,0,1-2.9-.26,4.1,4.1,0,0,0-3.4-.22c-1.08.34-1.4-.1-1.36-1a42.34,42.34,0,0,1,.51-6.77c.38-1.87-.18-3.81.61-5.61l0,0,.06-.06a5.63,5.63,0,0,0,.07-2.58,12.75,12.75,0,0,1,.37-3.94c.16-.57.38-1,1-1.06s.89.54,1,1.17c.57,2.62.12,5.28.32,7.91.06.66-.37,1.64.86,1.67s1.36-.74,1.35-1.71q0-9.8,0-19.58c0-12.71-.05-25.42,0-38.13a30.54,30.54,0,0,0-1.15-8.45c-.43-1.57.18-3.17-.51-4.7a6.47,6.47,0,0,1-.2-1.91,2.08,2.08,0,0,1-.12-2.94c.09-.14.18-.27.25-.4,0-.54.1-1.08.19-1.61a7.47,7.47,0,0,0-1.22-6.3c-.64-.86-.81-1.5,0-2.34,1.8-1.91,1.15-4.5,1.81-6.73a21.52,21.52,0,0,0,.48-6.14c.05-8,0-16,.18-24,.21-12.5.21-25,.2-37.53,0-1,.16-2.26-1.3-2.25s-1.65,1.15-1.72,2.38c-.11,2,.66,3.86.45,5.84-.14,1.19,0,2.94-1.35,2.94-.95,0-.87-1.87-1-3a3,3,0,0,1,.11-.67c-1-1.54-.83-4-.84-5.15,0-3.72-.79-7.34-1-11-.08-1.49.43-2.23,2-2.4a7.29,7.29,0,0,0,4.55-2.35,1.68,1.68,0,0,1,2.47-.31,8.85,8.85,0,0,0,9.87,0c.9-.57,1.49-.63,2.19.43a6.88,6.88,0,0,0,4.55,2.67c1.46.3,2.29,1.1,1.71,2.36-1.49,3.25-.14,6.36.2,9.5.36,3.3,1,6.58,1.51,9.86.63,4,1.35,7.9,2,11.86s1.14,8,1.74,12.06c.57,3.82,1.1,7.65,1.82,11.44.78,4.15,1.3,8.33,2,12.5A41,41,0,0,0,268.87,84c.28.64-.18,2,.94,1.86s.64-1.4.64-2.16q0-32.33,0-64.65c0-.68.53-1.85-.64-2-1-.1-1,1-1.2,1.77a4.83,4.83,0,0,0,0,2.33,11.21,11.21,0,0,1-.37,5.17A1.27,1.27,0,0,1,267,27.35c-.68,0-.82-.61-1-1.2a22.83,22.83,0,0,1-1-8.92c.26-3.74-1-7.3-.62-11,.1-1.16.35-1.79,1.62-2.09a9,9,0,0,0,4.34-2.55,1.73,1.73,0,0,1,2.56-.29,8,8,0,0,0,7,.91,4,4,0,0,0,.75-.22c.8-.49,1.56-1.37,2.49-1.21s1.31,1.32,2,2a9.59,9.59,0,0,0,2.23,1.5c1.38.69,1.58,1.81.45,2.77"/><path class="cls-1" d="M51.38,130.74a10.24,10.24,0,0,1-.74,5.37c-.15.28-.22.63-.59.63a.51.51,0,0,1-.5-.52c-.37-3-1-5.92-.09-8.9.16-.57.27-1.28,1-1.17s.83.82.87,1.37c.08,1.11,0,2.23,0,3.22"/><path class="cls-1" d="M53,116.49A6.13,6.13,0,0,0,50.9,121c-.16,2.14-1,2.66-3.06,2.71a3,3,0,0,0-3,3.36v29.46h0V185.3a6.06,6.06,0,0,1-.35,2.65c-1.12,2.5-1.77,2.94-4.52,2.75a20.88,20.88,0,0,0-8.15.79,25.12,25.12,0,0,1-13.65.27,33.47,33.47,0,0,1-8-3c-2.75-1.44-4.42-4-5.53-6.92A29.16,29.16,0,0,1,3,171.33Q3.12,144,3,116.71a51.25,51.25,0,0,0-1.28-10.47,8.69,8.69,0,0,0-1.21-2.39,2.15,2.15,0,0,1,0-2.51c2.18-3,2.24-4.31.09-7.18a2.13,2.13,0,0,1-.21-2.78,18,18,0,0,0,1.83-6.94C3.7,72,2.85,59.46,3,47c.13-9.12-.45-18.28.14-27.38S8.29,3.5,18.31,1.09c3.18-.8,6.53-.53,9.88-.24S35,2.35,38.43,2.61a3.93,3.93,0,0,0,3.19-1.06c.91-.88,1.66-1,2.42.39S45.73,5,47.84,5.17c.8.07.87.94.45,1.52-1.6,2.19-1.66,4.75-1.82,7.28-.7,11,.16,22.07,0,33.11a7.48,7.48,0,0,0,.92,3.19c.56,1.16.61,2.45,1.18,3.59.29.59,0,1-.52,1.32-4.34,2.94-5,7.39-5,12.15,0,2.24.32,4.5-.32,6.7-.18.64-.37,1.34-1.13,1.33a1.24,1.24,0,0,1-1.14-1.46A69.52,69.52,0,0,0,40,66.13a19.32,19.32,0,0,0-1.48-7.06,6.59,6.59,0,0,0-3.19-3.37,1.59,1.59,0,0,1-1-2.18A31.44,31.44,0,0,0,35.93,43c0-4.09.27-8.2-.07-12.26-.39-4.83-.52-9.72-2.32-14.39-1.07-2.75-3.59-3.23-6-3.09-3.34.19-5,2.23-5.9,5.42a42.66,42.66,0,0,0-1.11,8.89c-.54,6.77-.39,13.58-.27,20.34.1,5.87-.22,11.76.07,17.63.21,4.34.12,8.69.22,13a30.6,30.6,0,0,0,2.7,13.08A1.9,1.9,0,0,1,23,94c-2.4,2.53-2,4.33-.46,6.85a2.8,2.8,0,0,1,.21,3.15,17.92,17.92,0,0,0-1.66,6.74c-.22,4-.48,7.9-.64,11.86-.21,6.3-.1,12.59-.23,18.89-.09,4.19.15,8.38.09,12.57-.1,6.78.11,13.56.27,20.34a11.46,11.46,0,0,0,1.48,5.77,3.77,3.77,0,0,0,3.48,2c1.58,0,2.24-1.05,2.74-2.23a8.07,8.07,0,0,0,.64-3.07c.51-16.32.17-32.66.35-49,0-.31,0-.63,0-1s-.21-.73-.68-.73-.63.34-.63.75a8.2,8.2,0,0,0,.12,2.05c.73,2.65.28,5.25-.17,7.86A1.32,1.32,0,0,1,26.6,138c-.8.08-1.14-.44-1.4-1.06a10,10,0,0,1-.71-4.32c.26-5.48-1-10.85-1-16.27,0-1.4.32-2.19,1.82-2.62A5,5,0,0,0,29,110.35a1.48,1.48,0,0,1,2.47-.52c4,3.38,8.37,2.82,12.87,1.53.92-.26,1.39-1.12,2.21-1.52,1-.49,1.65-.54,2.09.69a5.82,5.82,0,0,0,3.72,3.66c1.33.43,1.61,1.38.6,2.3"/><path class="cls-1" d="M129.62,170.45c.07-1-.32-1.48-1.36-1.47s-1.38.59-1.38,1.51c0,1.6.05,3.19,0,4.79,0,.74.41,2.06-.39,2.09s-.82-1.35-.92-2.17a24.32,24.32,0,0,1,0-2.7,6.32,6.32,0,0,0-.79-3.35,6.06,6.06,0,0,1-.88-3.48c0-6.54.05-13.08.05-19.63,0-6.16-.06-12.31-.05-18.47q0-7.23.11-14.48c.08-5.71-1.48-10.56-6.78-13.6-2.58-1.49-2.72-3-.47-4.91a19.8,19.8,0,0,0,5.38-8.46c1.41-3.82,1.57-7.88,1.74-11.87.24-5.77.07-11.57.07-17.35V36.16c0-4.35.06-8.7,0-13a27.09,27.09,0,0,0-.26-6.19c-2-8.29-7.08-13.72-15.45-15.86A19.56,19.56,0,0,0,99.3,1c-4.55,1-9.1,1.91-13.79,1.65A7.29,7.29,0,0,1,80.9,1.22c-.91-.79-1.34-.57-2.05.19C77.53,2.82,76.06,4,73.92,3.91a1.52,1.52,0,0,0-1.64,2c1,4.63.92,9.41,1.42,14.1.26,2.41.62,4.79.92,7.19a1.16,1.16,0,0,0,1.15,1.12,1.11,1.11,0,0,0,1.15-.92,11.16,11.16,0,0,0,.48-2.65A25.31,25.31,0,0,0,77,18.92c-.18-.67-.17-1.75.82-1.75s.46,1,.57,1.55a.43.43,0,0,1,0,.16c0,10.72.17,21.45,0,32.16s.83,21.38-.72,32.07c-.43,3-.83,5.8-2.58,8.29a1.71,1.71,0,0,0,.19,2.4c2.86,3.3,2.26,5.06.18,7.19a1.71,1.71,0,0,0-.39,2.27c2.58,4.53,3.22,9.63,3.28,14.63.22,18.89.09,37.79.09,56.68v1.28c0,.37,0,.81-.52.82a.83.83,0,0,1-.78-.69,5.37,5.37,0,0,1-.11-1.26c0-2.07,0-4.15,0-6.21,0-.87-.26-1.82-1.31-1.89a1.6,1.6,0,0,0-1.72,1.46,1.13,1.13,0,0,0,0,.26c.15,3-.81,6-.89,9-.11,3.69-.87,7.31-1.23,11-.13,1.4.18,2,1.65,1.91a5.31,5.31,0,0,1,4,1.07,2.26,2.26,0,0,0,2.13.28c3.33-.85,6.68-1.63,10.15-.9.42.09.92,0,1.26.14,3.61,1.91,6.14-.32,8.73-2.26a3.05,3.05,0,0,0,1.18-2.94,20.42,20.42,0,0,1,0-5.24c.71-3.59.18-7.18.32-10.77.05-1.11-.82-1.35-1.79-1.1-1.2.32-1,1.35-1,2.21,0,1.75.05,3.51.07,5.25,0,.32,0,.68-.38.8a.68.68,0,0,1-.79-.4,4.55,4.55,0,0,1-.57-1.12,20.58,20.58,0,0,1-.79-5.29v-24.5c0-2.81-.16-5.64,0-8.44s-.58-5.42-.17-8.19c.38-2.56,0-5.19-.06-7.77s-.67-4.94-.1-7.4c.26-1.13.49-2.27.64-3.42a6.05,6.05,0,0,1,9.2-4.21,2.47,2.47,0,0,1,1.18,1.25,30.89,30.89,0,0,1,1.79,9.38c-.15,11.14-.06,22.29-.06,33.43v35.83c0,1.31.18,2.28,1.81,2.39.89.07,1.41.9,1.9,1.6s.88,1.44,1.32,2.16c.26.42.52.83,1.13.46a9.48,9.48,0,0,1,7.32-1.08A5.39,5.39,0,0,0,125,191c3.06-1.2,4.42-3.4,4-6.55a3.32,3.32,0,0,1,.1-.77c.18-1.46.37-2.93.54-4.39.33-2.95-.23-5.91,0-8.87M107.93,82.81a14.32,14.32,0,0,1-1.1,6.48c-.82,1.66-2.12,2.29-4,2.54-5,.65-7.13-3.24-7.13-7.53V54.52h-.3V24.12a12.59,12.59,0,0,1,1.52-6.55c1.77-3.07,3.87-3.49,6.82-3.14,1.62.19,3.42,3,3.83,5.23a49.32,49.32,0,0,1,.43,9c0,18.06,0,36.1,0,54.15"/><path d="M412.14,0A14.7,14.7,0,0,1,414,2.14a5.22,5.22,0,0,0,3,1.73,2.09,2.09,0,0,1,1.91,2.62c-.75,3.95-.36,7.92,0,11.85a29.68,29.68,0,0,1,0,6.25c0,.43,0,.9-.51,1s-.9-.23-1.17-.64c-1-1.49-.7-3.26-1-4.89a9.45,9.45,0,0,1,0-1.92c0-.72-.08-1.54-1-1.52s-.91.78-.86,1.47c.19,2.37.23,4.76.61,7.1.53,3.29.61,6.61,1,9.91.42,3.56.7,7.14,1.06,10.71s.64,6.94,1.1,10.39.43,6.95,1.05,10.4c.34,2,.55,3.94.93,5.9.07.37,0,.86.47.9s.42-.48.5-.83c.89-4.17,1-8.45,1.7-12.63.77-4.5,1.22-9,1.87-13.56.4-2.77.73-5.64,1.1-8.43.41-3,.44-6.17,1.32-9.18.52-1.74.25-3.65.61-5.47a53.14,53.14,0,0,0,.61-5.32c.07-.78.12-1.79-.89-1.88s-1.09.81-1.08,1.61a64.25,64.25,0,0,1-.77,9,1.23,1.23,0,0,1-1.51,1.22c-.92-.1-1.19-.85-1.14-1.63.35-6.57.27-13.14.28-19.71,0-2.46.29-2.63,2.74-3.19a5.88,5.88,0,0,0,3.76-2.15C430.48.2,431.28,0,432.51.92c2.76,2,5.31,1.83,8.28.15,1.56-.88,2.13-.78,2.9.88a5.47,5.47,0,0,0,2.18,2.24c1.09.71,1.34,1.53,1,2.94a68.51,68.51,0,0,0-1.18,8c-.46,3.6-.84,7.22-1.35,10.81-.09.62-.14,1.72-1.2,1.56s-1-1.07-1-1.88c0-2.21-.3-4.44.32-6.63.11-.4.2-1-.47-1.16s-.74.41-.85.92c-.75,3.35-1.16,6.76-1.62,10.16s-1,6.76-1.39,10.15c-.27,2.68-.91,5.3-1.16,8-.26,3-.91,5.93-1.34,8.9-.52,3.6-1,7.22-1.49,10.82-.43,3-.83,6.06-1.39,9.07-.34,1.82-.27,3.67-.57,5.5a23.22,23.22,0,0,0,.32,10,3.75,3.75,0,0,0,.37,1.19,1,1,0,0,1-.36,1.63c-3.19,1.9-3.14,5.55-1.36,8.52a1.61,1.61,0,0,1,0,2,27.92,27.92,0,0,0-4,13c-1.65,19.48-.34,39-.81,58.51a9.4,9.4,0,0,0,.63,3.4c.15.41.29,1,.94.89s.59-.68.59-1.14v-6.7a4.14,4.14,0,0,1,.26-1.71c.29-.68.56-1.22,1.46-1.16a1.43,1.43,0,0,1,1.36,1.34,21.7,21.7,0,0,1,.54,3.76c.08,4.29-.32,8.59.36,12.87.15,1,.9,2,.2,2.91s-1.78.43-2.66.79a9.52,9.52,0,0,0-3.46,2.2,1.47,1.47,0,0,1-2,.29,16.38,16.38,0,0,0-7.54-1.59,13.94,13.94,0,0,0-6.57,1.52c-.89.5-1.52.64-2.24-.44A4.61,4.61,0,0,0,404,191c-1,.06-1-.73-1.06-1.44-.24-1.57.58-3,.46-4.54-.38-4.94,1.06-9.77.81-14.7a1.64,1.64,0,0,1,1.72-1.88c1.37,0,1.41,1,1.41,2V178c0,.45-.15,1.12.5,1.14s.84-.56.87-1.14c0-.42,0-.85,0-1.27,0-17.25.13-34.5-.07-51.75a62,62,0,0,0-2.09-16.22,8.41,8.41,0,0,0-1.89-3.62c-1.67-1.75-1.63-2-.27-4.07a5.52,5.52,0,0,0-1.54-7.94,1.33,1.33,0,0,1-.57-1.78,20.19,20.19,0,0,0,1-10.93c-.56-3.9-.75-7.83-1.36-11.73-.53-3.36-.9-6.77-1.41-10.15-1-6.35-1.6-12.76-2.32-19.12-.36-3.17-.84-6.38-1.16-9.56s-.3-6.66-1.46-10.26c-.82,1.71-.5,3.13-.57,4.49-.06,1-.32,1.86-1.52,1.78A1.71,1.71,0,0,1,392,23.91c.09-2.55-.81-5-1.1-7.48a36.45,36.45,0,0,0-1.18-7.29c-.43-1.31-.16-2.63-.26-3.94a1.31,1.31,0,0,1,.75-1.28,16.38,16.38,0,0,0,3.87-3,1.53,1.53,0,0,1,2.09-.32A16.36,16.36,0,0,0,411.3.38a3.31,3.31,0,0,0,.52-.38ZM398.41,14.91c-1.73,2.73-1.73,5.54-1.12,8.39s.79,5.87,1.13,8.78c.43,3.62,1,7.23,1.35,10.85.46,4.47,1.07,8.92,1.64,13.37.6,4.6,1.43,9.18,1.75,13.81.2,2.85.76,5.65.92,8.51a44.32,44.32,0,0,1-.05,4.89c-.06,1.13,1.28,2.24,1,2.46a3.25,3.25,0,0,0-1,2.68,5.18,5.18,0,0,1-.37,1.7C403,92,403.12,92.21,405,92.2s2.62,1.37,1.75,2.91a3.16,3.16,0,0,0-.32,1.84,7.78,7.78,0,0,1-1.41,5c-.77,1.13-.31,1.74.62,2.31.64.37,1.47.5,1.78,1.27a1.52,1.52,0,0,0,1.7,1.1c.32,0,.7,0,.66.49a.57.57,0,0,1-.65.51H409c-1.75-.3-1.31.78-1.14,1.73a19.6,19.6,0,0,0,.26,2c1.52,5.6,1.14,11.36,1.4,17.06.07,1.48.46,2.93,0,4.54-.49,1.84-.17,3.9-.13,5.86.12,8.43,0,16.87.07,25.3.05,4.49.05,9-.15,13.51-.05,1.1.4,2.74-1.25,2.81s-1.36-1.62-1.51-2.7a45.8,45.8,0,0,1,0-6.83c0-.52.14-1.22-.57-1.28s-.8.69-.85,1.25c-.17,1.79-.4,3.59-.42,5.38-.05,4-.93,8-.9,12.05,0,1,.2,1.66,1.48,1.23a3,3,0,0,1,2.64.09,4.61,4.61,0,0,0,3.83.3,16.23,16.23,0,0,1,9.29,0,8.42,8.42,0,0,0,7.28-1,2.27,2.27,0,0,0,1.43-2.39,4.69,4.69,0,0,1,.5-2.63,10.89,10.89,0,0,0,.86-5.28c-.1-1.83-.13-3.61-.29-5.4-.07-.85.53-2.33-.87-2.29s-.78,1.48-.82,2.36c-.11,2.38.24,4.78-.07,7.15a1.83,1.83,0,0,1-1.14,1.6c-.64.26-1-.3-1.32-.66s-.7-.75-1.22-.62c-1.53.38-1.87-.64-2-1.74a21.79,21.79,0,0,1-.23-3c0-11.1.08-22.19,0-33.28-.06-5.11.17-10.21-.25-15.36a31.62,31.62,0,0,1,.59-8c.25-1.31.25-2.48-1.59-3.23,1.91-.32,2.26-1.39,2.42-2.69a29,29,0,0,1,3.05-9.5,2.93,2.93,0,0,0,.13-2.74c-1.41-3-.87-5.67,1.05-8.2a3.4,3.4,0,0,0,.76-2.8,25.06,25.06,0,0,1-.52-8.9c.77-4.6,1-9.29,1.81-13.87,1.28-7,1.82-14.12,3.14-21.12a2.55,2.55,0,0,0-.23-2.29.55.55,0,0,1,0-.78l.08-.07c1-.67.94-1.77,1-2.73a69.81,69.81,0,0,1,1.06-7.62c1-5.19,1.23-10.5,2.49-15.64.32-1.3.9-2.1,2.24-2.28,1.51-.21,2.12-1.16,2.32-2.6s-.13-3.31.82-4.49c1.63-2,1-3.42-.43-5.08-.71-.83-1-1.18-2.14-.49-2.95,1.86-6,2-8.88-.22-.92-.71-1.48-.19-2,.42a5.65,5.65,0,0,1-4.29,2.07c-1,0-1.41.55-1.42,1.5a34.1,34.1,0,0,1-.12,4.29,126.64,126.64,0,0,0-.49,13.35,2.63,2.63,0,0,0,.09.79c.11.32.09.86.53.88s.61-.54.7-.92a6.14,6.14,0,0,0,.11-1.42c0-1.86,0-3.72-.07-5.57a4,4,0,0,1,1.28-3.28c.77-.72,1.6-1.43,2.65-.71a2.28,2.28,0,0,1,.78,3.09,13.4,13.4,0,0,0-.73,2.9c-.55,2.27-.37,4.62-.9,6.89a80.45,80.45,0,0,0-1.12,8.47c-.6,4.78-1.3,9.54-1.88,14.31-.27,2.24-.44,4.52-.86,6.76-.52,2.8-.75,5.64-1.18,8.45-.72,4.79-1.15,9.63-1.71,14.45-.07.62-.15,1.46-.93,1.42s-.41-.85-.51-1.35-.16-.83-.26-1.24c-.19-.74-.57-.85-1.1-.28-1.12,1.18-1.51.48-1.64-.66-.29-2.37-.47-4.75-.8-7.12-.64-4.63-.11-9.43-1.87-13.92a.9.9,0,0,1,0-.46,10.11,10.11,0,0,0-.51-6.51,1.15,1.15,0,0,1-.11-.91,6.84,6.84,0,0,0,.06-3.62c-.64-4.14-.78-8.32-1.37-12.47-.39-2.72-.44-5.57-.66-8.36-.1-1.23-.25-2.24-1.85-2.84,1.57-.43,1.49-1.4,1.45-2.39-.08-1.7.31-3.32,2.07-3.9,1.92-.64,2.27-1.84,2-3.56a3.66,3.66,0,0,1,1.23-3.73c1.17-.93.61-1.5-.42-1.9a6.46,6.46,0,0,1-3.32-2.36c-.78-1.23-1.6-1-2.68-.56a19.07,19.07,0,0,1-6.73,1.69A16.14,16.14,0,0,1,396.63,2a2.08,2.08,0,0,0-2.71.44A11,11,0,0,1,391,4.87a1.44,1.44,0,0,0-.72,1.9c.81,2.33.82,4.78,1.16,7.18.37,2.55,1.2,5.05,1,7.69,0,.58.19,1.46,1,1.33s.6-.93.59-1.49a8.41,8.41,0,0,0-.93-3,3.31,3.31,0,0,1,.87-3.9c1-1.08,2-.86,3.1-.05a5.75,5.75,0,0,0,1.35.4Zm19,5a2.06,2.06,0,0,0-.15,2.2c.16.28.49.21.62-.08a1.73,1.73,0,0,0-.47-2.11Z"/><path d="M351.18,53.24V21.88c0-1,0-1.92-.07-2.88-.07-.65-.1-1.59-1-1.59s-1,.91-1.1,1.56a9.5,9.5,0,0,0-.08,1.92,21.62,21.62,0,0,1-.36,5.2c-.13.5-.2,1-.77,1.06a1.43,1.43,0,0,1-1.55-.57,3.3,3.3,0,0,1-.49-2.12c.44-4.73-.87-9.35-.89-14.07,0-1.42-.32-2.92-.42-4.39a1.77,1.77,0,0,1,1.67-2.11,7.19,7.19,0,0,0,4.31-2.45A1.94,1.94,0,0,1,353.15,1a25.68,25.68,0,0,0,3.35,1.41c1.7.77,3.05-.43,4.54-.83A4.8,4.8,0,0,0,362.17,1c1-.56,1.71-.69,2.52.48A5.75,5.75,0,0,0,368.23,4c1.24.27,1.66,1.17,1.08,2.44a7.72,7.72,0,0,0-.59,3.25,77.41,77.41,0,0,1-.71,9c-.22,1.88.22,3.83-.19,5.69-.19.86.11,2.3-1.17,2.28s-1.48-1.34-1.44-2.44c.07-1.92-.23-3.81.2-5.71A1.21,1.21,0,0,0,364.6,17h0c-.8-.26-1.18.29-1.34,1a21.49,21.49,0,0,0-.49,5.82c.14,4,.12,7.93.15,11.89q0,4.36,0,8.73c0,8.38.16,16.78-.07,25.16-.12,4.34.32,8.63.56,12.93a23,23,0,0,0,2.09,7.6c.68,1.59,1,2.87-.37,4.48a4.08,4.08,0,0,0-.2,5.43c2.19,2.46,1.28,4.84.52,7.42-1.46,5-1.75,10.16-2.15,15.31-.57,7.32,0,14.64-.37,21.94-.66,13.05-.16,26.09-.38,39.13a50.86,50.86,0,0,0-.11,5.24,1.64,1.64,0,0,1-1.56,1.87,9.62,9.62,0,0,0-5.4,3.12c-.76.8-1.21.76-2-.08a7.35,7.35,0,0,0-5.49-2.48c-.85,0-1.12-.32-1.36-1.15-1.05-3.61-1-7.38-1.66-11-.57-2.95-.68-5.95-1.24-8.89-.51-2.63-.8-5.3-1.15-8q-.8-6-1.55-12c-.32-2.66-.75-5.32-.92-8-.26-3.94-.89-7.85-1.45-11.73-.45-3.09-.74-6.24-1.3-9.35-.68-3.76-1.24-7.54-2.18-11.25a13.09,13.09,0,0,0-2-4.77,3.21,3.21,0,0,1-.3-3.63,8.52,8.52,0,0,0-.35-7.62c-.75-1.39-1.49-1.37-2.32-.07-1.59,2.56-1.87,5.14-.13,7.72a3.13,3.13,0,0,1,.4,3.25,21.51,21.51,0,0,0-1.21,6.2,100.81,100.81,0,0,0-.36,12.53c.22,5.93.15,11.87.32,17.79.13,4.51-.28,9-.16,13.51.17,6.2-.12,12.41-.24,18.62a13.52,13.52,0,0,0,.64,4.68c.1.32.17.8.63.79s.47-.52.69-.79a2.09,2.09,0,0,0,.22-1.39c0-2.23,0-4.46,0-6.7,0-1,.29-1.91,1.4-1.91a1.6,1.6,0,0,1,1.59,1.6,2.48,2.48,0,0,1,0,.27c-.59,4.39.4,8.89-.93,13.23a4.3,4.3,0,0,0-.08,1.89c.42,2.34-.91,3.55-2.75,4.47a13.27,13.27,0,0,0-1.41.71,4.48,4.48,0,0,1-4.2.6,10.92,10.92,0,0,0-6.38-.09,3.48,3.48,0,0,1-2,0,11.23,11.23,0,0,0-4.79-.84c-.76,0-1-.64-1-1.23.16-2.31.34-4.62.64-6.92a12.48,12.48,0,0,0,.21-1.71,73.75,73.75,0,0,1,.8-10.4c.07-.64.25-1.27,1.08-1.33s1.17.59,1.26,1.33c0,.32,0,.64,0,1v6.85c0,1,.1,2.16,1.11,2.12s1.2-1.33,1.06-2.27c-.39-2.55-.05-5.08-.05-7.62,0-17.51.16-35,0-52.54,0-3.4-.13-7.06-1.67-10.2-1.21-2.46-1.63-4.4,0-6.83,1.38-2.06.17-4.2-.92-6.06-.7-1.2-.94-2.11.09-3.26a8.25,8.25,0,0,0,1.7-4.54,84,84,0,0,0,.91-11.65c0-19.16,0-38.32,0-57.48,0-1,.37-2.5-1.19-2.44-1.28.05-1.87,1.33-1.82,2.58a13,13,0,0,0,.55,3.72c.54,1.6-.19,2.87-.54,4.27-.08.32-.22.64-.59.66s-.49-.36-.59-.64a7.66,7.66,0,0,1-.71-2.4c0-1.65-.32-3.25-.45-4.87-.37-4-.76-8.06-1.21-12.08a1.87,1.87,0,0,1,1.84-2.26,8.87,8.87,0,0,0,4.47-2.2,3.22,3.22,0,0,1,3.84-.35A7.39,7.39,0,0,0,328.4,1c1.54-1,1.91-.7,3.07.8a7.7,7.7,0,0,0,4.39,2.35c1.53.39,2.12,1.09,1.83,2.63a18.49,18.49,0,0,0,.38,6.91c.41,2.11.75,4.27,1,6.4.22,2.38.7,4.7,1,7.06.41,3.34,1.13,6.65,1.57,10,.61,4.69,1.42,9.36,2.15,14,.69,4.36,1.28,8.75,2.08,13.11,1,5.23,1.42,10.52,2.77,15.7.64,2.49,1.12,5,1.66,7.53.07.32.1.71.5.68s.43-.42.44-.74V86.21Zm-27.07,63c1.6-.44,1.63-1.56,1.68-2.73a38.41,38.41,0,0,1,1.36-9.42,3.5,3.5,0,0,0-.34-2.91c-1.32-2.21-1.18-4.49-.64-6.93.33-1.48,1.47-2.92.32-4.75a5,5,0,0,1-.77-2.83c.52-2.82-.56-5.56-.19-8.38.18-1.34.48-2.87-.51-4.14a.64.64,0,0,1,.05-.59c.75-.93.5-2,.5-3.07,0-4.23,0-8.46,0-12.69a4.42,4.42,0,0,1,1.14-3.37c.77-.75,1.58-1.31,2.69-.75a2.09,2.09,0,0,1,1.13,2.55,11.84,11.84,0,0,0-.32,2.84c.2,3.7.84,7.34,1.26,11,.47,4.1.93,8.2,1.31,12.3.27,2.83.73,5.68-.3,8.49a1.5,1.5,0,0,0,.29,1.64c2.33,2.31,2.16,5.16,1.49,8-.45,1.9-1.54,3.7.74,5.15a1.23,1.23,0,0,1,.35.7c.64,2.4,1.35,4.78,1.85,7.21s.8,4.79,1.14,7.18c.39,2.66.89,5.33,1,8a72.05,72.05,0,0,0,1,7.53c.8,5.23,1.15,10.5,2,15.71.55,3.27.86,6.59,1.27,9.89.89,7.13,1.81,14.26,2.65,21.4.2,1.63.5,3.24.76,4.86.17,1,.56,1.25,1.52.89a4.11,4.11,0,0,1,3.95.43,2.58,2.58,0,0,0,2.73.08c.71-.36,1.41-.75,2.14-1.06a2.8,2.8,0,0,0,1.82-2.87c0-3.51,0-7,0-10.5,0-15,.21-29.93.35-44.89,0-2,.1-4,.22-6a49,49,0,0,1,.26-5.77c.85-5.06,1-10.23,3.08-15a2.11,2.11,0,0,0-.69-2.44A5.35,5.35,0,0,1,361,97.28a7.19,7.19,0,0,1,.88-4,4.63,4.63,0,0,0,.07-5,5.28,5.28,0,0,1-1.05-2.45c.14-2.64-1.36-5-1-7.71.32-2.23-.22-4.54-.23-6.82q0-25.24,0-50.48a15.83,15.83,0,0,1,.39-3.63A3.8,3.8,0,0,1,363.68,14c1.37-.17,2-1,1.72-2.18-.55-2.41.39-4.17,2-5.72.81-.76.66-1.28-.37-1.54a4.35,4.35,0,0,1-2.64-1.91C363.69,1.5,363,1.56,362,2.21c-1.63,1-3.4,1.86-5.42,1.36A11,11,0,0,1,352.89,2c-.64-.45-1.27-.57-1.84.09a7.87,7.87,0,0,1-4.57,2.68,1.39,1.39,0,0,0-1.16,1.63c.07,4.87,1,9.69.91,14.58a8.61,8.61,0,0,0,.37,2c.08.35.17.83.62.8s.64-.55.6-1c-.09-1.05-.23-2.1-.4-3.14a5.94,5.94,0,0,1,.92-4.71c.79-1,1.74-1.78,3.14-1,1.12.6,1.45,1.88.84,3.35a7,7,0,0,0-.67,2.76q0,6.83,0,13.65l0,22.58.12,34.87a4.25,4.25,0,0,1,0,.8c-.05.32-.15.64-.49.75s-.72-.17-.89-.51-.22-.7-.37-1-.07-1.08-.62-1.21-.75.47-1.07.81-.32.77-.81.61-.23-.53-.27-.83c-.87-6-1.65-12.09-2.69-18.09a30.11,30.11,0,0,1-.77-4.32c-.16-4.15-1.15-8.25-1.82-12.37-.84-5.18-1.71-10.35-2.51-15.54-1.54-9.85-3-19.71-4.61-29.55-.26-1.6-.42-2.72,1-3.78.95-.69.95-1.46-.45-1.85a7.88,7.88,0,0,1-4.24-2.37c-.92-1.2-1.67-1.06-2.8-.36-2.26,1.38-4.66,2-7.24.72-.7-.37-1.47-.62-2.16-1a1.61,1.61,0,0,0-2.14.26,7.68,7.68,0,0,1-4.75,2.3c-1,0-1.35.67-1.23,1.63.23,1.78.18,3.58.45,5.38.33,2.23.34,4.54.54,6.81,0,.43,0,1.18.6,1.13s.31-.77.29-1.16A5.09,5.09,0,0,1,314.05,14c.9-.87,1.85-1.28,3-.59a2.15,2.15,0,0,1,1,2.9c-1.27,2.46-.84,5.07-.87,7.62-.08,6.24.2,12.48.13,18.72q-.06,6-.13,12.07c-.11,8.59.06,17.19-.12,25.79-.09,4-.32,8.07-2.78,11.56a1.24,1.24,0,0,0,.14,1.59c2.09,2.92,2.24,5.86.27,8.8a1.85,1.85,0,0,0,.16,2.67,3.3,3.3,0,0,1,1,2.4,2,2,0,0,0,1,1.75c.46.29.58.63.12,1-.72.59-.49,1.28-.34,2a18.35,18.35,0,0,1,.47,3.3c.08,5.14.23,10.29.1,15.44-.23,8.89.07,17.78-.07,26.67-.11,6.89,0,13.8,0,20.69,0,1.08-.23,2.24-1.43,2.33s-1.63-1.12-1.78-2.22a5.21,5.21,0,0,1,0-.79,62.45,62.45,0,0,1,.11-6.84c0-.6.11-1.46-.8-1.45-.75,0-.83.81-.8,1.35.2,3.25-.67,6.43-.67,9.66a32.86,32.86,0,0,1-.64,6.78c-.37,1.75,0,2,1.73,1.66.74-.14,1.66-.42,2.19,0,1.61,1.31,3.29.85,5,.52a6,6,0,0,1,3.31.08c2.44,1,4.49.32,6.63-.88a2.32,2.32,0,0,0,1.47-2.65,4.21,4.21,0,0,1,.39-2.94,11.92,11.92,0,0,0,1.49-7.18c-.1-1.6,0-3.19,0-4.79,0-.67.12-1.58-.84-1.59s-.88.87-.89,1.57c0,.42,0,.85,0,1.27,0,1.75.11,3.51.1,5.25,0,1,0,2.1-1,2.67-.84.46-4.54-1.34-4.77-2.28a12.85,12.85,0,0,1-.32-3.16c0-2.59.09-5.19.08-7.79q0-24,0-47.92c0-1.2,0-2.25-1.51-2.84m5.11-51a1.84,1.84,0,0,0-.34,1.36c0,5.62-.07,11.24,0,16.85a21.53,21.53,0,0,0,1.62,7.37.67.67,0,0,0,.71.51.57.57,0,0,0,.58-.58v0c.1-1.58.32-3.16.27-4.73-.2-6.42-1.35-12.77-1.88-19.15a2,2,0,0,0-1-1.59Zm38-43.09c-.21-.45.05-1.35-.61-1.39s-.69.8-.68,1.36-.19,1.49.62,1.51c.66,0,.48-.9.67-1.48M313,23.69a1.88,1.88,0,0,0,.16-2.38.31.31,0,0,0-.44-.08.3.3,0,0,0-.08.08,1.9,1.9,0,0,0,.36,2.38"/><path d="M44.87,156.47v28.82a6.2,6.2,0,0,1-.34,2.65c-1.12,2.51-1.77,2.94-4.52,2.76a20.94,20.94,0,0,0-8.16.78,25.09,25.09,0,0,1-13.64.27,33.47,33.47,0,0,1-8-3c-2.76-1.44-4.42-4-5.53-6.92A28.7,28.7,0,0,1,3,171.32Q3.1,144,3,116.7a52,52,0,0,0-1.28-10.47,8.77,8.77,0,0,0-1.21-2.38,2.13,2.13,0,0,1,0-2.51c2.18-3,2.23-4.32.09-7.19a2.12,2.12,0,0,1-.21-2.78,18.12,18.12,0,0,0,1.83-6.94C3.69,72,2.85,59.45,3,47c.13-9.13-.44-18.29.15-27.38S8.27,3.51,18.27,1.08C21.49.3,24.84.57,28.19.86S35,2.36,38.43,2.61a3.9,3.9,0,0,0,3.19-1C42.53.69,43.28.55,44,2S45.73,5,47.84,5.18c.8.06.87.94.45,1.51-1.6,2.19-1.66,4.76-1.82,7.28-.7,11,.16,22.07,0,33.11a7.14,7.14,0,0,0,.92,3.19c.56,1.16.6,2.46,1.18,3.6.29.58,0,1-.52,1.32-4.34,2.94-5,7.38-5,12.15,0,2.23.32,4.5-.32,6.7-.18.64-.37,1.34-1.13,1.33a1.25,1.25,0,0,1-1.14-1.47A71.8,71.8,0,0,0,40,66.14a19.28,19.28,0,0,0-1.48-7.06,6.52,6.52,0,0,0-3.19-3.37,1.61,1.61,0,0,1-1-2.19A31.42,31.42,0,0,0,35.93,43c0-4.09.27-8.2-.07-12.25-.39-4.84-.52-9.73-2.32-14.4-1.07-2.75-3.59-3.22-6-3.09-3.34.21-5,2.26-5.9,5.43-.86,2.95-.88,5.91-1.12,8.89-.54,6.77-.38,13.58-.26,20.34.1,5.88-.22,11.76.07,17.64.21,4.34.12,8.69.22,13a30.66,30.66,0,0,0,2.7,13.08A1.9,1.9,0,0,1,23,94c-2.4,2.52-2,4.33-.46,6.85a2.8,2.8,0,0,1,.21,3.15,17.92,17.92,0,0,0-1.66,6.74c-.22,3.94-.48,7.9-.64,11.86-.21,6.3-.1,12.59-.24,18.89-.08,4.19.16,8.38.1,12.57-.1,6.78.11,13.56.26,20.34a11.58,11.58,0,0,0,1.49,5.77,3.77,3.77,0,0,0,3.48,2c1.58,0,2.24-1,2.74-2.25a8.06,8.06,0,0,0,.64-3.06c.51-16.33.17-32.66.35-49,0-.32,0-.64,0-1s-.21-.72-.68-.72-.63.34-.63.74a8.28,8.28,0,0,0,.13,2.06c.72,2.65.28,5.25-.17,7.85A1.34,1.34,0,0,1,26.6,138c-.79.08-1.13-.45-1.4-1.06a10,10,0,0,1-.71-4.32c.26-5.48-1-10.85-1-16.28,0-1.39.32-2.19,1.83-2.62A5,5,0,0,0,29,110.35a1.47,1.47,0,0,1,2.47-.52c4,3.37,8.37,2.82,12.88,1.53.91-.27,1.39-1.12,2.21-1.53,1-.48,1.64-.54,2.08.7a5.8,5.8,0,0,0,3.72,3.65c1.3.47,1.58,1.42.57,2.34A6.11,6.11,0,0,0,50.87,121c-.16,2.14-1,2.66-3.06,2.71a3,3,0,0,0-3,3.36v29.46Zm-40-46.72c-1.82.31-1.52,1.47-1.45,2.44.13,1.94.18,3.87.14,5.82-.11,5.25.06,10.5,0,15.74,0,3.76.07,7.54,0,11.31-.19,7.26-.07,14.54,0,21.81,0,3.34.18,6.65.54,10,.24,2.27.86,4.58,2.5,6.06,4.15,3.74,8.3,7.52,14.43,8a32,32,0,0,0,7.25.14c4-.57,7.85-2.68,12.18-1.69,1,.23,2.58-.32,2.58-1.77,0-1,.16-1.91.17-2.87,0-2.2-.1-4.39,0-6.6.2-6,.08-12.08.09-18.13q0-14.67,0-29.33a30.86,30.86,0,0,1,.17-4.61c.32-2.11,1.76-4.14,4.39-3.92,1.17.1,1.59-.6,1.67-1.64a12.18,12.18,0,0,1,.55-2.8c.34-1.06,2-1.42,1.72-2.46s-1.78-1.21-2.56-2a6,6,0,0,0-5-1c-4.56,1.77-8.94,1.64-13-1.3-.82-.59-1.34-.44-1.71.48a5.9,5.9,0,0,1-4.26,3.51c-.89.24-1,.6-.88,1.46a34.79,34.79,0,0,1,.42,5.86c-.23,3.93.63,7.8.7,11.72,0,.58-.05,1.55.68,1.58s.94-.93,1-1.6a19,19,0,0,0-.5-5.36,6.39,6.39,0,0,1,.14-3.6c.46-1.28,1.86-2.13,2.81-1.82a2.29,2.29,0,0,1,1.1,3.22,8.52,8.52,0,0,0-.53,3.42c0,4.15.09,8.3,0,12.43-.27,12.12.68,24.26-.59,36.37-.34,3.27-2.23,5.13-5.28,4.61-1.2-.2-1.91-1.39-3.07-1.59-2.16-.4-2.84-2-3.31-3.83-1-3.75-.78-7.6-.81-11.4-.11-10.91,0-21.82,0-32.73,0-1.51-.59-2.83-.17-4.56.7-3,.23-6.22.32-9.34.15-5.84.25-11.69,2.3-17.27a2.27,2.27,0,0,0-.55-2.5,3.32,3.32,0,0,1-.85-2.46A8.58,8.58,0,0,1,19.34,93a3.45,3.45,0,0,0,0-3.91,4.89,4.89,0,0,1-.64-1.61,43,43,0,0,1-1.3-9.08c-.1-4.88-.29-9.76-.27-14.63,0-11.89-.14-23.78.13-35.67,0-1.45.1-2.87.22-4.33a13.77,13.77,0,0,0,.15-2c0-.77-1.1-.63-1.48-1.21,1.8-.62,1.82-.62,2.47-3.14,1.8-7,7.55-8.54,12.77-6.89,2.27.72,4.49,3.38,4.18,5.5a24.31,24.31,0,0,0,.07,4.36c0,1.62.64,3.11.73,4.7.38,6.31.2,12.63.21,18.94,0,3,.12,6.06-1,8.95-.69,1.77-.68,1.78,1.22,1.81s2.65.66,2.82,2.32c.51,5,1.62,10,1.21,15.17,0,.67,0,1.74.64,1.79.93.06.71-1.08,1-1.72a.94.94,0,0,0,.06-.47c-.33-2.32,0-4.68-.45-7-.88-4.18-.61-8,2.88-11.08a1.87,1.87,0,0,0,.44-2.48c-1.68-2.76-1.74-5.86-1.78-8.93-.08-6.76,0-13.53,0-20.29a90.49,90.49,0,0,1,.32-11.29,7.34,7.34,0,0,1,.58-2.61c.44-.83,2-1.12,1.72-2.21-.25-.87-1.29-1.49-2-2.24a3.63,3.63,0,0,1-.62-.92c-.42-.88-.87-.87-1.56-.23a5,5,0,0,1-5,1A44.6,44.6,0,0,0,21.47,1.7c-6.11.35-11.11,2.86-14.42,8.19C4.54,14,4,18.48,3.67,23.14c-.29,3.63,0,7.23-.06,10.85-.14,11.75-.07,23.51.07,35.27,0,4.55.07,9.13-.26,13.66-.16,2.28-.23,4.72-1.33,6.91-.83,1.66-2.3,3.47.46,4.84a.36.36,0,0,1,.15.27c.06,2.23.81,4.65-1.09,6.46-1.08,1-.86,1.7-.05,2.6a4.54,4.54,0,0,1,1.28,3.64c-.15,1.31.06,2.31,2.07,2.11"/><path d="M252.83,178.91v-7.07c0-.37,0-.74,0-1.12s-.18-1-.74-1.05-.67.59-.67,1.07c0,1.7,0,3.4.07,5.11a9.28,9.28,0,0,1-.39,3.14c-.51,1.57-1.42,1.87-2.64.78-.35-.32-.66-.55-1.12-.43-1.4.39-1.79-.55-2.06-1.59A16.14,16.14,0,0,1,245,174c-.06-6.63-.08-13.26-.13-19.89q-.06-8.12.12-16.23a9.43,9.43,0,0,0-.32-2.65c-.32-1.13.13-2.34.2-3.51.19-3.39-.12-6.79.08-10.16.32-5.33,0-10.73,1.38-16a8.24,8.24,0,0,0-.36-4.91,9.43,9.43,0,0,1,.08-7.12,7.2,7.2,0,0,0,.17-4.93c-1.28-4.76-1.17-9.67-1.25-14.55,0-1.15.25-2.34-.49-3.4a.58.58,0,0,1-.1-.44c1.28-3.83.32-7.78.59-11.66.06-.84.09-1.7.2-2.54a3.27,3.27,0,0,1,1.92-2.55,2.11,2.11,0,0,1,2.4.16,2.06,2.06,0,0,1,.78,2.27c-.89,3.34,0,6.61.47,9.89.39,2.78.59,5.58.88,8.35.49,4.79,1.46,9.55,1,14.41-.07.68-.06,1.38-.15,2.06-.16,1.08-.32,2.1.89,2.77a1.38,1.38,0,0,1,.54.95c.25,2.62.84,5.29-.43,7.81a1.84,1.84,0,0,0,.47,2.62,5,5,0,0,1,1.48,2.7,127.92,127.92,0,0,1,3.1,17c.58,5,1.43,10,1.86,15.11a70.06,70.06,0,0,0,.91,7.05c.92,4.89,1.37,9.84,2,14.75.62,4.53,1.16,9.1,1.63,13.68.42,4.14,1.22,8.26,1.46,12.44.07,1.19.77,1.86,1.91,1.33a3.61,3.61,0,0,1,3.95.49c1.4,1,2.61,0,3.86-.58a4,4,0,0,0,2.55-4.21c0-7.88-.12-15.76.12-23.65.17-5.89,0-11.78.2-17.67.25-7.95-.1-15.92.57-23.86a99.57,99.57,0,0,1,2-13.08c.25-1.14,0-2.34,1.08-3.26.45-.38-.06-1.09-.46-1.54-2.05-2.31-2-4.89-1-7.6.26-.71.67-1.33-.35-1.85-.69-.36-.37-.79.2-1,1.14-.37,1.09-1,.68-2a32.18,32.18,0,0,1-2.35-12.73c-.13-14.64-.1-29.29-.11-43.94,0-4.36,0-8.71.07-13.06.06-2.51.69-4.68,3.64-5.45a2.76,2.76,0,0,0,2-2.8,6,6,0,0,1,1.81-4.91c.43-.39.53-1-.09-1.12-1.42-.34-2-1.56-2.79-2.49-.66-.78-1.22-.91-2-.36a7.64,7.64,0,0,1-9.2.07,1.42,1.42,0,0,0-2.08.15,9.31,9.31,0,0,1-4.51,2.56,1.48,1.48,0,0,0-1.27,1.87c.8,5.5.82,11.08,1.41,16.6,0,.46-.1,1.28.62,1.24.56,0,.6-.79.64-1.31a10.9,10.9,0,0,0-.45-3.46,6.1,6.1,0,0,1,1.54-5.58,1.42,1.42,0,0,1,2.18-.35c.48.32.91.74,1.4,1.05.89.58,1,1,.29,2-1.25,1.61-.92,3.61-.87,5.51.06,2.4,0,4.79,0,7.2,0,4-.09,8,0,12,0,1.23-.12,2.42-.11,3.64,0,8.12,0,16.24.05,24.36.05,7-.16,14.1.15,21.15a4.42,4.42,0,0,1-.1,1.26.84.84,0,0,1-.91.72c-.58,0-.66-.4-.69-.86a6.6,6.6,0,0,0-.18-1.26c-.21-.71-.66-1-1.28-.4-1.24,1.22-1.55.15-1.72-.75-.41-2.14-.64-4.3-1-6.44-.5-2.7-.84-5.4-1.55-8.08s-.53-5.43-1-8.15q-2.52-15.69-5-31.41c-.61-3.83-1.12-7.65-1.7-11.48q-1-6.66-2.14-13.31a3.8,3.8,0,0,1,1-3.79c.86-.78.75-1.46-.46-1.8a9,9,0,0,1-4.79-3c-.6-.75-1.26-.34-1.84,0a10.71,10.71,0,0,1-3.49,1.49c-2.17.48-4.09-.39-5.9-1.36a2,2,0,0,0-2.79.27,6.58,6.58,0,0,1-4.51,2.07c-1.17,0-1.32.66-1.22,1.7.44,4.3.8,8.61,1.16,12.91a18.18,18.18,0,0,1-.12,2.09,7,7,0,0,1-.85-4.11c0-3.72-.79-7.34-1-11-.08-1.49.44-2.23,2-2.39a7.3,7.3,0,0,0,4.55-2.36,1.69,1.69,0,0,1,2.47-.31,8.85,8.85,0,0,0,9.87,0c.9-.57,1.49-.63,2.19.43a6.88,6.88,0,0,0,4.55,2.67c1.46.3,2.29,1.1,1.71,2.36-1.49,3.25-.13,6.38.2,9.5.36,3.3,1,6.58,1.51,9.86.64,3.95,1.36,7.9,2,11.85s1.14,8.05,1.75,12.07c.57,3.82,1.1,7.65,1.81,11.44.78,4.15,1.3,8.33,2,12.5A41,41,0,0,0,268.88,84c.29.64-.17,2,.94,1.86s.64-1.4.64-2.16q0-32.32,0-64.65c0-.68.53-1.85-.64-2-1-.1-1,1-1.19,1.77a4.83,4.83,0,0,0,0,2.33,11.08,11.08,0,0,1-.38,5.17A1.27,1.27,0,0,1,267,27.36c-.68,0-.82-.61-1-1.2a22.55,22.55,0,0,1-1-8.93c.26-3.74-1-7.3-.62-11,.1-1.16.35-1.79,1.61-2.1a9,9,0,0,0,4.35-2.53,1.74,1.74,0,0,1,2.56-.28,8.07,8.07,0,0,0,7,.91,4,4,0,0,0,.75-.22c.8-.5,1.57-1.38,2.49-1.21s1.31,1.32,2,2a9.25,9.25,0,0,0,2.23,1.49c1.37.68,1.57,1.82.44,2.76a3.47,3.47,0,0,0-1.34,3.18,8,8,0,0,1-.79,3.68A2,2,0,0,1,284,15.22c-2.58.54-3.3,1.36-3.32,4,0,2.76,0,5.52,0,8.29,0,15.67-.08,31.34,0,47A39.34,39.34,0,0,0,282,83.69a34.81,34.81,0,0,0,2.14,5.48,2.48,2.48,0,0,1-.41,2.78c-2.07,2.69-2.35,4.94-1,6.85.52.73,1.1,1.42,1.65,2.13.83,1.07,1.26,2.07-.16,3.09a4.39,4.39,0,0,0-1.45,2.93,105.55,105.55,0,0,0-1.84,14c-.29,5.67-.08,11.33-.26,17-.48,15.09-.38,30.19-.42,45.3,0,4.25-2.05,6.72-6.31,7.81a2.19,2.19,0,0,1-2-.32,3.8,3.8,0,0,0-4.18-.34c-.91.4-1.27.14-1.43-.75-.41-2.37-1-4.73-1.19-7.11-.39-4.15-.93-8.24-1.59-12.33-.41-2.49-.53-5-.89-7.51-.39-2.65-.7-5.31-1-7.95s-.81-5.11-1-7.66a69.32,69.32,0,0,0-1.47-9.49c-.4-1.87-.16-3.75-.53-5.64-.67-3.44-.73-7-1.36-10.46-.59-3.23-1-6.5-1.85-9.7-.72-2.71-1.39-5.38-3.08-7.67a1.34,1.34,0,0,1,.06-1.6,8.51,8.51,0,0,0-.32-9,4.76,4.76,0,0,1-.42-3.51,29.18,29.18,0,0,0-.43-10.66c-.32-1.64-.17-3.34-.49-5-.88-4.75-.46-9.66-1.61-14.4a13.11,13.11,0,0,1-.06-3c0-.44,0-.9-.61-.93s-.77.48-.72,1c.49,4.41-1.71,8.53-1.39,12.87.26,3.54-.13,7.08.36,10.62.32,2.19.24,4.43,1,6.56.48,1.34,1.66,2.33,1.8,3.83.05.45.2.68-.34,1a5.14,5.14,0,0,0-1.67,7.6c.36.52.7,1,1,1.6.6,1.07,1.05,1.94-.14,3.17-1.5,1.55-1.22,3.86-1.48,5.88-.6,4.69-.25,9.43-.49,14.14-.12,2.43.13,4.82.1,7.24-.1,5.69,0,11.38,0,17.07v25.7a3.36,3.36,0,0,0,1.37,3.19,2.51,2.51,0,0,1,.83,1.33c.19.5.45,1,1.13.87a1.17,1.17,0,0,0,.91-1.32c0-2.49,0-5,0-7.48,0-.77.2-1.43.93-1.67a1.26,1.26,0,0,1,1.81,1.19c.09,2.71,0,5.43,0,8.12,0,.17-.21.32-.32.5Z"/><path d="M108.37,150.06c0-11.14-.09-22.29,0-33.44a30.89,30.89,0,0,0-1.79-9.37,2.43,2.43,0,0,0-1.18-1.25,6.05,6.05,0,0,0-9.2,4.21c-.16,1.14-.39,2.28-.64,3.41-.57,2.47.07,4.94.1,7.4s.45,5.23.07,7.77c-.42,2.79.36,5.45.16,8.2s0,5.62,0,8.44v24.5a20.58,20.58,0,0,0,.79,5.29,4.73,4.73,0,0,0,.57,1.12.66.66,0,0,0,.79.39c.34-.11.39-.48.38-.8,0-1.75-.09-3.51-.07-5.25,0-.86-.16-1.91,1-2.21,1-.25,1.83,0,1.78,1.11-.14,3.58.4,7.17-.32,10.77a20.88,20.88,0,0,0,0,5.24,3,3,0,0,1-1.18,2.94c-2.59,1.91-5.11,4.15-8.73,2.25-.34-.18-.84,0-1.25-.13-3.48-.73-6.83,0-10.16.9a2.31,2.31,0,0,1-2.13-.28,5.31,5.31,0,0,0-4-1.07c-1.46,0-1.78-.52-1.65-1.92.36-3.66,1.12-7.28,1.23-11,.08-3,1-5.91.89-8.95a1.59,1.59,0,0,1,1.46-1.72h.26c1,.06,1.28,1,1.3,1.89.06,2.06,0,4.14,0,6.2A5.28,5.28,0,0,0,77,176a.81.81,0,0,0,.77.7c.51,0,.5-.46.52-.83s0-.84,0-1.27c0-18.9.13-37.79-.09-56.69-.06-5-.7-10.1-3.28-14.63a1.71,1.71,0,0,1,.39-2.26c2.07-2.13,2.68-3.89-.18-7.19A1.71,1.71,0,0,1,75,91.41c1.75-2.48,2.14-5.3,2.58-8.29,1.55-10.68.51-21.38.72-32.06s0-21.44,0-32.16v-.16c-.11-.57.3-1.56-.57-1.56s-1,1.08-.82,1.75a25.35,25.35,0,0,1,.44,5.83,11.7,11.7,0,0,1-.48,2.64,1.1,1.1,0,0,1-1.14.92,1.15,1.15,0,0,1-1.14-1.11c-.32-2.4-.67-4.79-.92-7.19-.51-4.7-.45-9.47-1.44-14.12a1.53,1.53,0,0,1,1.64-2c2.15.05,3.61-1.09,4.92-2.49.72-.77,1.15-1,2.06-.19a7.31,7.31,0,0,0,4.61,1.39c4.7.24,9.24-.7,13.78-1.65a19.56,19.56,0,0,1,8.94.1c8.4,2.13,13.52,7.55,15.48,15.85a27,27,0,0,1,.26,6.18c0,4.35,0,8.7,0,13.06q0,10.37,0,20.73c0,5.79.17,11.58-.07,17.36-.17,4-.32,8-1.74,11.87a19.64,19.64,0,0,1-5.38,8.45c-2.25,1.94-2.11,3.43.47,4.91,5.31,3,6.86,7.9,6.78,13.61q-.09,7.24-.11,14.48c0,6.16.05,12.31.05,18.47,0,6.54,0,13.08-.05,19.63a6.16,6.16,0,0,0,.88,3.48,6.33,6.33,0,0,1,.79,3.34,24.3,24.3,0,0,0,0,2.7c.1.83.09,2.21.92,2.17s.36-1.34.39-2.08c.08-1.6,0-3.19,0-4.79,0-.93.32-1.51,1.38-1.52s1.42.48,1.36,1.48c-.21,2.95.35,5.92,0,8.87-.18,1.47-.36,2.93-.55,4.39a3.37,3.37,0,0,0-.09.77c.39,3.16-1,5.36-4,6.55a5.3,5.3,0,0,1-3.12.37,9.48,9.48,0,0,0-7.32,1.08c-.6.37-.86,0-1.12-.46-.45-.72-.84-1.47-1.33-2.16s-1-1.53-1.89-1.6c-1.64-.11-1.81-1.07-1.81-2.38q0-17.9,0-35.81m-29,9.29h-.17v3.83c0,4.24,0,8.49-.08,12.73,0,.81-.13,1.87-1.27,1.87s-1.34-1-1.48-1.92a31.45,31.45,0,0,1,0-6.65c0-.64.18-1.59-.77-1.64s-.88.89-1,1.55q-.51,4.42-1,8.85c-.33,3.15-.65,6.31-1,9.46-.1,1.08.25,1.53,1.47,1.32,1-.17,2.18-.54,3,.34,1.32,1.34,2.79,1.28,4.42.79a15.11,15.11,0,0,1,9.26-.18,6.81,6.81,0,0,0,6.42-.89c2-1.34,2.28-1.52,1.85-4a7.7,7.7,0,0,1,.71-5.08c1.51-3,.4-6.29.91-9.41a.86.86,0,0,0-1-.93c-.58.07-.77.51-.78,1,0,.32,0,.63,0,.95,0,1.81.12,3.61,0,5.43,0,.68-.56,2-.93,1.71-1.28-1.13-2.83-1.37-4.22-2.08-.18-.09-.24-.46-.3-.71a14.39,14.39,0,0,1-.32-1.56A89.27,89.27,0,0,1,92.82,161q0-21.48,0-43c0-.91.08-1.83-1-2.27-.45-.19-.53-.59-.06-.83,1.21-.6,1.08-1.71,1.13-2.76a12.37,12.37,0,0,1,1.29-6A9.12,9.12,0,0,1,106,103.06a4.75,4.75,0,0,1,2.58,5.53,4.21,4.21,0,0,0-.11,1.58,43.71,43.71,0,0,1,.39,8.17q-.15,12.93,0,25.88c.07,7.53-.18,15.06.12,22.6A46.5,46.5,0,0,1,109,173c-.39,4.19,0,8.37-.22,12.55,0,.93.34,1.53,1.46,1.3a2.88,2.88,0,0,1,3.61,2.07,2.17,2.17,0,0,0,2.66,1.48,20.33,20.33,0,0,1,6.18,0c2.38.3,5.47-2.76,5-4.86a7.41,7.41,0,0,1,.43-4.95,8.77,8.77,0,0,0,.69-6,3.11,3.11,0,0,1,.12-2,5,5,0,0,0,.16-1.88c0-.56-.17-1-.79-1s-.76.48-.75,1,.06,1.17.06,1.75a28.68,28.68,0,0,1-.19,5.4c-.11.59-.32,1.2-1,1.23s-.73-.61-.82-1.15-.39-1.21-1.16-.76c-1.37.79-1.7,0-1.81-1.12a21,21,0,0,1-.19-2.38c0-4.11,0-8.23,0-12.34,0-3.93-.09-7.86-.08-11.78q0-15.84.09-31.68a54,54,0,0,0-.5-6.35c-.08-.7-.18-1.44-1.25-1.11a.52.52,0,0,1-.7-.26.56.56,0,0,1,0-.12c-.08-.41.27-.59.56-.64.9-.2.83-.81.7-1.48s-.23-1.14-.32-1.72c-.51-3-1.65-5.39-5.11-6.06-1.94-.37-2.65-2.38-1.81-4.18a5,5,0,0,1,1.61-1.94c3.78-2.83,5.19-7,6.11-11.28a43.28,43.28,0,0,0,.77-9.19c0-7.71,0-15.43,0-23.15,0-7.11-.07-14.22,0-21.33a54.72,54.72,0,0,0-2.2-16.49c-.32-1-.54-2-2-1.63-.32.08-.7,0-.75-.38s.3-.43.55-.44c1.89-.12,1.12-.94.51-1.79-1.75-2.47-4.3-3.92-7-5.14a18,18,0,0,0-8.65-1.66c-4.19.26-8.24,1.43-12.36,2.09-3.45.55-6.76.43-9.85-1.41-.65-.39-1-.07-1.47.41a6.19,6.19,0,0,1-4.64,2.42c-.82,0-1.31.32-1.28,1.23.07,1.22.07,2.44.18,3.65.45,4.85.94,9.69,1.41,14.54,0,.46-.06,1.06.61,1.09s.81-.49.85-1a9.81,9.81,0,0,0-.45-4.4,8.33,8.33,0,0,1-.32-3.29c0-1.45,1.23-1.74,2.12-2.31a1.39,1.39,0,0,1,1.74.39,2.37,2.37,0,0,1,.39,2.81,8.45,8.45,0,0,0-.72,3.55c0,8.53.16,17.06.1,25.59-.08,11.61.45,23.23-.49,34.82-.3,3.62-.71,7.29-3.14,10.29-.61.76,0,1.15.45,1.55s1.42.61,1.47,1.36c.16,2.21.89,4.56-1.25,6.36a1.58,1.58,0,0,0-.06,2.61,4.27,4.27,0,0,1,1.24,2.7c.36,3.83,1.3,7.52,1.52,11.4.3,5.3.18,10.6.32,15.89.22,8.51,0,17,0,25.57"/><path d="M153.36,169.75c-.13,3.64-.24,7.29-.4,10.94-.1,2.28-.29,4.55-.44,6.83-.08,1.27.29,1.59,1.75,1.83,2.8.44,5.46-.07,8.18-.22a12.6,12.6,0,0,1,3.29.5c2.83.58,4.74-.93,4.73-3.78a4.87,4.87,0,0,1,.78-3,12.49,12.49,0,0,0,2.28-8.56c-.1-1.32,0-2.65,0-4,0-.46,0-1.08-.64-1.1s-.64.57-.68,1.05c-.19,2.63-.38,5.27-.56,7.9a2.88,2.88,0,0,1-.49,1.5c-.55.8-1.17,1.09-1.91.2-.35-.43-.75-.85-1.34-.68-1.56.45-1.8-.59-2-1.7-.43-2,0-4,.12-6,.39-7.37.84-14.73,1.26-22.09.21-3.77,2.58-6.4,5.82-6.82,2.72-.35,5.93-.64,8.7.76a4.72,4.72,0,0,1,2.42,5.21c-.43,3,.08,5.92.34,8.87.22,2.43.38,4.87.38,7.3,0,4.47,1,8.86.7,13.32,0,.37,0,.74,0,1.11-.05.71-.41,1.33-1.09,1.38s-1.12-.58-1.21-1.25c-.26-1.94-.47-3.88-.68-5.83-.08-.74-.07-1.49-.14-2.23-.05-.5-.26-1-.86-.93s-.68.61-.6,1.12c.44,2.9.21,5.83.38,8.74a53.49,53.49,0,0,1,.25,6.82c-.14,1.94.15,2.12,2.08,1.86a3.17,3.17,0,0,1,2.83.66,2.84,2.84,0,0,0,2.88.46,23.28,23.28,0,0,1,11.19-.22c3.11.67,4.79-.88,4.6-4.05a5.56,5.56,0,0,1,.49-3.1c1.47-2.71,1.44-5.6,1.08-8.53a4.17,4.17,0,0,1,.12-2.47,1.3,1.3,0,0,0-.32-1.59.62.62,0,0,0-.74-.09c-.59.32-.45.9-.47,1.42-.09,2.47.32,5-.33,7.44-.57,2.09-1.15,2.27-2.74.81-.61-.55-1-.24-1.5.19-.81.73-1.19.57-1.43-.56a54.24,54.24,0,0,1-.89-8.53c-.39-6.92-.92-13.83-1.37-20.75-.32-5-.61-9.95-.93-14.93-.25-4-.29-8.06-.89-12-.29-1.91.2-3.68.08-5.52-.09-1.34-.56-2-2-1.71a19.06,19.06,0,0,1-3,.18c-.37,0-.79-.14-.73-.64s.45-.43.75-.42a24,24,0,0,1,3.17.22c1.22.22,1.76-.37,1.79-1.42a34.79,34.79,0,0,1,1.8-10.94,2.07,2.07,0,0,0-.5-2.07c-2-2.47-1.83-5.13-.46-7.73.79-1.51.94-2.61-.32-4-1.86-2-2-4.7-2.39-7.25-1.1-7.65-1.48-15.4-1.95-23.13-.39-6.46-.72-12.93-1.45-19.35-.19-1.6,0-3.13-.21-4.66-.49-4.63-.64-9.29-1.07-13.93a108.61,108.61,0,0,1-.5-12.36c0-1.22.57-2.35.54-3.6-.06-2.08-1.12-2.84-3-2a14.93,14.93,0,0,1-12.19-.32c-1-.44-1.68-.54-2,.73a2.3,2.3,0,0,1-1.1,1.51c-2,.89-2.14,2.58-1.8,4.27s-.21,3-.4,4.51c-.42,3.26-.32,6.55-.59,9.82-.8,9.92-1.49,19.84-2.23,29.77-.38,5-.7,10-1.17,15-.35,3.63-.44,7.28-1,10.91-.64,4.4-1.28,8.71-3.69,12.55a1.61,1.61,0,0,0,.08,2c1.92,2.46,1.72,5.07.23,7.56-.85,1.4-1.07,2.59-.06,3.92a5.16,5.16,0,0,1,.63,2.6,49.85,49.85,0,0,1,.54,11.19c-.26,2.9-.08,5.84-.22,8.75-.32,6.06-.72,12.15-1.09,18.22a.89.89,0,0,1-.45.75c0-2-.14-3.91,0-5.84.36-3.95.47-7.91.8-11.85.48-5.81.37-11.62.37-17.44a15,15,0,0,0-1.63-7.13,2.11,2.11,0,0,1,.11-2.5,6.48,6.48,0,0,0,0-8.45,1.41,1.41,0,0,1,.09-1.89c2.32-2.75,2.48-6.23,3.06-9.51A155.68,155.68,0,0,0,164,62.73c.32-5.84.92-11.67,1.32-17.51.35-5.26.59-10.53,1.2-15.77.43-3.64.13-7.31.75-10.9.68-3.91.32-7.88.84-11.79a2.73,2.73,0,0,1,1.37-2.35A4,4,0,0,0,171.36,2c.35-1,1-1.27,2-.8,3.63,1.77,7.45,1.73,11.3,1a6.31,6.31,0,0,0,2.14-1c.86-.55,1.35-.32,1.77.52a13,13,0,0,0,2.19,3.66,1.15,1.15,0,0,1,.2,1.34c-1.62,3.09-.64,6.34-.58,9.51.07,2.64.47,5.27.64,7.91.46,7.4.87,14.79,1.56,22.17.26,2.74.2,5.5.42,8.25.52,6.5.75,13,1.36,19.5a50.13,50.13,0,0,0,2,10.88c.62,1.9,1.86,3.42,2.79,5.13.5,1,.79,1.5-.49,2.22-2.13,1.2-2.45,4.38-.89,6.26q.7.85,1.32,1.77c.71,1,1.05,1.91-.16,3a5.83,5.83,0,0,0-1.65,3.87c-.17,2.68-.93,5.42-.64,8,.4,3.57.3,7.13.66,10.67s1.35,6.88.35,10.37c-.21.72.45,1.27.49,2,.22,3.06.2,6.15.48,9.19.32,3.52.72,7.05.92,10.59.26,4.6.61,9.19.71,13.8,0,2.11-.09,4.4,1.91,6,.27.2.36.63.54.95s.4,1.09,1.1,1a1.28,1.28,0,0,0,1-1.41v-5.89c0-.42,0-.85,0-1.27.06-.93.15-2,1.35-2s1.22.94,1.28,1.94c.13,2.21-.19,4.44.47,6.63.36,1.25-.32,2.5-.53,3.73a26.82,26.82,0,0,0-.28,4.1c0,3.93-3.1,6.17-6.95,5.35a25,25,0,0,0-11.62.46,2.63,2.63,0,0,1-2.55-.36,3.42,3.42,0,0,0-3.15-.64c-1,.22-1.41-.16-1.53-1.06-.85-6.22-.2-12.48-.36-18.71a1,1,0,0,1,.71-1,.89.89,0,0,1,1.16.55,2.81,2.81,0,0,1,.37,1.19c0,2.18.69,4.29.48,6.48-.06.62,0,1.52.81,1.45s.88-.95.81-1.64c-.47-4.63-.59-9.28-.78-13.93-.16-4.09-.69-8.18-1.11-12.26a13.56,13.56,0,0,0-.59-2.44c-.79-2.59-1.07-2.78-3.81-2.76l-4.47,0a3.25,3.25,0,0,0-3.49,2.59,10.51,10.51,0,0,0-.56,3.28c.27,7.06-.38,14.09-.75,21.12-.07,1.41-.75,2.8-.14,4.23.19.46.1,1.2.82,1.19s.82-.82.89-1.31c.25-2,.4-4,.56-6,.05-.58,0-1.17,0-1.75a1.06,1.06,0,0,1,1.11-1.1,1.08,1.08,0,0,1,1.15,1.09,4.81,4.81,0,0,1-.05,2,9.54,9.54,0,0,0-.32,3.63,16,16,0,0,1-1.43,8.17,6.87,6.87,0,0,0-.28,2.34c-.42,3.4-2.47,5.26-6.09,4.51a13.7,13.7,0,0,0-7.46.18c-2,.67-3.88-.14-5.82-.35-.49,0-.62-.55-.58-1,.32-3.51.4-7,.5-10.57,0-1.16.29-2.32.23-3.47a23.84,23.84,0,0,1,.64-5.33Z"/><path d="M169.84,117.23a46.09,46.09,0,0,1,2.62-13,6.28,6.28,0,0,0,.16-4.63,9,9,0,0,1,.28-6.67,7.21,7.21,0,0,0,.32-4.33,50,50,0,0,1-1-13.08c.4-6.83.59-13.67.84-20.51a16.81,16.81,0,0,1,.39-3.31,3.16,3.16,0,0,1,2.6-2.49,2.14,2.14,0,0,1,2.58,2.87c-1.17,3.43-.64,6.9-.41,10.36s.45,6.65.51,10c.08,4-.07,8,0,12.06a21.06,21.06,0,0,1-.55,5.19c-.29,1.23-.36,2.42.73,3.36a1.72,1.72,0,0,1,.53,1.3c.09,2.67.68,5.42-1.15,7.81-.32.41-.5,1,0,1.28,1.37.85,1,2.3,1.38,3.5a44.89,44.89,0,0,1,1.28,6.79c.39,3,1,6,.87,9-.1,2-.76,3.92-2.62,4.93-1.65.91-3.25.11-5-.38-3.3-.92-4-3.44-5-6-.19-.52.14-.77.3-1.14a11.72,11.72,0,0,0,.34-2.83m3,3.08a8.06,8.06,0,0,0,.46,3.3c.45,1.4,1.05,2.87,2.82,3.09,1.49.17,3.19.3,3.92-1.34a9.76,9.76,0,0,0,.7-5.26c-.41-3.06-.51-6.16-1.2-9.18-.47-2-1-4.08-1.53-6.09-.16-.57-.45-1.32-1.24-1.25s-.89.79-1.1,1.4a67.46,67.46,0,0,0-1.87,7c-.61,2.77-.54,5.57-1,8.33Zm3.93-63.23c-.37,3.88-.78,7.52-1,11.17-.14,2,.13,3.94-.08,5.88-.5,4.7-.68,9.36.9,13.92.1.29,0,.73.41.75s.55-.46.53-.8c-.1-1.91.48-3.74.48-5.66,0-6.77-.72-13.52-.47-20.3,0-1.1,0-2.23-.09-3.33,0-.48.15-1.05-.64-1.63Zm2.06,40.75a36.12,36.12,0,0,0-.92-3.79c-.35-1-1.06-1.19-1.75-.19-1.23,1.77-1.1,5.58.22,7.22.56.72,1.06.64,1.48-.07a6.7,6.7,0,0,0,1-3.17Z"/><path d="M231.34,176.56a5.33,5.33,0,0,0,.1-2.66,13,13,0,0,1,.37-3.93c.17-.58.39-1.05,1-1.07s.9.55,1,1.17c.56,2.62.11,5.28.32,7.91.05.66-.38,1.65.85,1.67s1.36-.74,1.36-1.7V158.36c0-12.71,0-25.42,0-38.13a30.47,30.47,0,0,0-1.09-8.44c-.43-1.56.18-3.17-.51-4.69-.41-.91-.1-5.84.12-6.87a7.45,7.45,0,0,0-1.22-6.3c-.64-.86-.81-1.5,0-2.34,1.79-1.91,1.14-4.5,1.81-6.73a21.51,21.51,0,0,0,.47-6.14c.06-8,0-16,.18-24,.21-12.5.21-25,.2-37.53,0-1,.17-2.26-1.3-2.25s-1.65,1.15-1.72,2.38c-.11,2,.66,3.86.45,5.84-.13,1.19,0,2.94-1.34,2.94-1,0-.88-1.87-1-3a3,3,0,0,1,.11-.67c.49.24.19,1.22.89,1s.55-.87.48-1.36c-.18-1.37-.43-2.72-.68-4.08a4.65,4.65,0,0,1,2.4-4.78,2,2,0,0,1,2.23.29,2.32,2.32,0,0,1,.93,2.55c-1.53,6.24-.56,12.53-.53,18.83,0,1.89-.18,3.79-.19,5.69,0,11,.07,22-.13,33-.08,4.84-.07,9.72-1.2,14.5a8.14,8.14,0,0,1-1.51,3.45,1.65,1.65,0,0,0,0,2.3,6.89,6.89,0,0,1,.24,8.39,2.1,2.1,0,0,0,.13,3c1.8,2,1.44,4.72,1.71,7.12,1.17,10.35.55,20.76.75,31.15.07,3.48.2,7,.13,10.45-.15,7.47,0,14.94-.2,22.41a20.43,20.43,0,0,1-.49,3c-.13.72-.41,1.37-1.28,1.42s-1.27-.64-1.49-1.39a14.7,14.7,0,0,1-.25-5.68c.09-1.08-.17-2.11-.11-3.17,0-.38-.08-.8-.57-.79s-.56.43-.6.8c-.15,1.48-.32,3-.44,4.43-.05.58,0,1.18-.46,1.63Z"/><path d="M231.32,176.54c.74,1.84.16,3.69-.11,5.49-.3,2-.12,3.92-.36,5.87-.1.86.23,1.29,1.23,1a3.87,3.87,0,0,1,3.78.51,1.3,1.3,0,0,0,1.36.2c2.4-1,4.79-.54,7.15.06,1.6.41,5.23-.73,6.21-2a1.81,1.81,0,0,0,.32-1.51,5.93,5.93,0,0,1,1-4.47,14,14,0,0,0,.89-1.83c.44.4.18.77,0,1.16a11,11,0,0,0-1,5.07,2.59,2.59,0,0,1-1.64,2.79,15.91,15.91,0,0,0-2.34,1.34c-1.77,1.22-3.54.34-5.19-.13s-3.24,0-4.81.35a3.7,3.7,0,0,1-2.9-.26,4,4,0,0,0-3.4-.22c-1.09.33-1.41-.11-1.37-1a44.56,44.56,0,0,1,.51-6.76c.39-1.88-.19-3.83.62-5.64Z"/><path d="M158,177.22c-.13-9.23.68-18.47,1.05-27.72l.57,0Z"/><path d="M51.38,130.74a10.24,10.24,0,0,1-.74,5.37c-.15.29-.22.64-.59.64s-.47-.26-.5-.52c-.37-3-1-5.93-.09-8.9.16-.57.27-1.28,1-1.17s.83.82.87,1.36c.08,1.12,0,2.23,0,3.22m-1.92.26c0,.92.08,1.82.17,2.7,0,.3.16.66.56.64s.43-.32.48-.57a16.5,16.5,0,0,0,.1-5.34.66.66,0,0,0-.62-.62c-.39,0-.48.41-.51.71-.11.83-.14,1.67-.18,2.48"/><path d="M153.39,169.78c-.08-.62.32-.79.77-.64a1.32,1.32,0,0,1,1,1.33l.06,5.56v1.43c0,.77-.22,1.68.68,2.11s1.24-.69,2-1.09c0,1.08-.55,1.74-1.45,1.82s-1.4-.69-1.51-1.53a27.09,27.09,0,0,1-.19-6.17,16.9,16.9,0,0,0,.09-1.74c0-1-.48-1.33-1.42-1.1Z"/><path d="M287.24,21.78a5.86,5.86,0,0,1-.66,3.12c-.11.27-.19.71-.58.64a.81.81,0,0,1-.64-.81c0-.34-.27-.81.42-.91,1-.16.86-1,.85-1.7s.21-1.27-.95-1.12c-.62.08-.28-.84-.32-1.31a.94.94,0,0,1,.69-1.09c.53-.1.64.42.82.79a4.57,4.57,0,0,1,.37,2.39"/><path d="M185.77,115.93c-.44-.1-1.16,0-1.16-.53,0-.72.75-.59,1.23-.59s1.27-.13,1.23.59-.82.42-1.3.53"/><path d="M183,31c.4.08,1.06-.17,1.07.55,0,.55-.55.56-1,.54s-1.12.09-1.18-.49.64-.48,1.07-.6"/><path d="M279.14,115.26a2.15,2.15,0,0,1-2.63.32.32.32,0,0,1-.07-.44.52.52,0,0,1,.11-.1,2.91,2.91,0,0,1,2.59.22"/><path d="M272.53,115.86c-.4-.16-1.15.13-1.11-.54s.73-.43,1.18-.45,1-.1,1,.45c0,.7-.68.44-1.1.54"/><path d="M10.87,86.56c-1.12-.76-2.45-.3-3.79-.13-.38,0-1,0-1-.53s.62-.64,1-.56a7.71,7.71,0,0,0,4,0c.38-.11,1,0,1,.52s-.57.64-1.22.74"/><path d="M101.92,93a5.34,5.34,0,0,1-4.14-1.3c-.75-.62-1.55-.94-2.37,0a1.51,1.51,0,0,1-1.21.27c-.78,0-1.2-.35-.48-1a1.16,1.16,0,0,0,.18-1.67,10.81,10.81,0,0,1-1.31-6.27c.38-6.79.15-13.57.18-20.35.07-13,0-26.09,0-39.14,0-1.85-.18-3.83.43-5.51,1-2.87,2.79-5.42,6-6.32a7.67,7.67,0,0,1,7.61,1.55,5.32,5.32,0,0,1,1.75,5.18c-.39,2.06.22,4.1.21,6.17-.09,9.8-.11,19.61,0,29.41,0,2.73.26,5.53.14,8.2-.22,5-.06,10.06-.16,15.09,0,2.14.07,4.3,0,6.44a2.43,2.43,0,0,0,.17,1.39c.51.74.34,1.2-.27,1.74s-.39,1.71-.72,2.53c-1,2.57-2.76,3.65-6,3.67M95.37,54.52h.3V84.3c0,4.29,2.11,8.19,7.13,7.53,1.91-.24,3.21-.87,4-2.53a14.47,14.47,0,0,0,1.09-6.48c.07-18,0-36.1,0-54.15a50.34,50.34,0,0,0-.43-9c-.41-2.21-2.21-5-3.84-5.23-2.94-.34-5,.08-6.81,3.14a12.59,12.59,0,0,0-1.52,6.55q0,15.21,0,30.4"/><path d="M87.41,115.91c-.51-.09-1.28,0-1.34-.51s.75-.58,1.23-.57,1.28-.15,1.31.49-.76.45-1.2.59"/><path d="M84.5,92.1c-.47,0-1-.06-1.06-.66s.45-.67.86-.69,1.15,0,1.15.73c0,.51-.55.54-1,.62"/></g></g></svg>