<svg id="Layer_1" data-name="Layer 1" xmlns="http://www.w3.org/2000/svg" viewBox="0 0 968.54 675.34"><defs><style>.cls-1{fill:#fff;}</style></defs><title>logo-youtube-white</title><g id="UItAJ0.tif"><path class="cls-1" d="M450.1,675.34c-114.88-6-205.91-9.64-296.78-15.68C71,654.19,12.81,612.35,7.48,518,2.2,424.65.37,331.07,0,237.61c-.14-37.07,7.37-74.22,12-111.25C20.54,58.41,77.33,20.63,134.06,14.28,265.07-.36,396.68-1.24,528.23.84c93.5,1.48,187,6.15,280.39,11,47.39,2.46,92.29,13.39,122,55.94,18.69,26.78,23.52,58,27.08,89.11,14.72,128.88,15.42,257.58-3.84,386.28-10.78,72-68,110.44-122.55,113.54C696.46,664.36,561.49,670,450.1,675.34ZM634,335.75,391.32,186.61V485Z"/></g></svg>