<svg id="Layer_1" data-name="Layer 1" xmlns="http://www.w3.org/2000/svg" viewBox="0 0 948.45 942.66"><defs><style>.cls-1{fill:#fff;}</style></defs><title>logo-steam-white</title><g id="cFT5Yt.tif"><path class="cls-1" d="M16,600.9,125.3,645.46c21,8.55,41.8,17.42,62.94,25.5,6.88,2.62,9.95,6.51,11.92,13.52,16.87,60.1,72.48,99.49,136.27,97,61.22-2.35,113.72-47.22,125.85-107.58.46-2.25,1.33-4.61,1.05-6.8-2.66-20.4,8.89-31.2,24.57-41.76,43.92-29.58,86.72-60.81,130.26-90.95A35.44,35.44,0,0,1,636,528.53C741.67,524.21,819,436.06,808.69,331.15c-8.91-91.1-95.93-164.07-187.47-157.2C533.46,180.53,465.16,239.23,454,324.12c-3.93,29.84-18.7,50.81-34,73.18-25.38,37-51.46,73.57-76.95,110.52-3.92,5.69-8.16,8-15.09,7.89a123.43,123.43,0,0,0-65.77,18.06c-6.44,3.88-11.63,3.45-18.21.75C166.54,502.73,89.16,471,11.49,439.91,1,435.7-.93,430.43.35,420.25,17.16,287,77.62,177.29,186,98.67,342-14.49,511.91-31.08,685.18,52.85,838.49,127.11,927.83,254.06,945.76,424c24.65,233.67-122,440.4-350.24,502.42C353.68,992.11,95.93,852.84,20.22,615.53,19,611.64,18,607.67,16,600.9Z"/><path class="cls-1" d="M749.47,351.16c0,65.16-53.41,118-119.23,118s-119.31-53-119.25-118c.05-65.28,53.22-117.82,119.25-117.84S749.51,286,749.47,351.16Zm-209,0c.1,48.88,40.45,88.7,89.86,88.69s89.82-39.68,90.13-88.56c.31-49.21-40.51-89.4-90.57-89.17C580.36,262.37,540.43,302.14,540.52,351.18Z"/><path class="cls-1" d="M296.67,556c45.12-20.74,104.49,5.07,125.43,52.51,22.57,51.1-1.67,110.69-53.59,131.79-48.72,19.79-109.66-2-127.36-47.35,19.57,8,37.71,15.62,56.06,22.74,47.14,18.29,97.11-11.16,102.77-60.39,3.75-32.56-15.13-63.19-47.28-76.47C334.68,571.33,316.59,564.06,296.67,556Z"/></g></svg>