<svg id="Layer_1" data-name="Layer 1" xmlns="http://www.w3.org/2000/svg" viewBox="0 0 864 1025.57"><defs><style>.cls-1{fill:#fff;}</style></defs><title>logo-apple-white</title><g id="SVytk9.tif"><path class="cls-1" d="M284.26,1025.57H263.52a5.36,5.36,0,0,0-1.48-.73c-21.38-2.91-40-12.14-57.13-24.81-23.54-17.44-42.8-39.1-61.24-61.7A643.78,643.78,0,0,1,28.08,724.55C14.17,680.84,4.7,636.22,1.5,590.38,1.07,584.23.5,578.1,0,572V534c.23-1.54.53-3.08.67-4.64.91-9.88,1.52-19.8,2.72-29.64C8.68,456.05,21.23,414.71,44,377c48.68-80.7,119.66-125.48,214.24-131.14,27-1.62,52.8,5.34,78.17,13.68,27.42,9,54.67,18.59,82,27.76,12,4,24.07,4.95,36.37.72,23.63-8.14,47.47-15.69,71-24,29.12-10.33,58.68-18.48,89.65-20.53,27.72-1.84,54.83,2.43,81.6,9,46.84,11.44,87.59,33.65,120.17,69.71C824,329.49,830,337.45,836,344.74c-12.37,9.18-24.48,17.48-35.81,26.72-32,26.07-55.35,58.27-68.09,97.76-10.69,33.18-12.49,67.11-8.35,101.55,3.54,29.51,12.16,57.39,27.53,82.86,27,44.73,64.72,77.33,112.69,98v.86c-.58,1.29-1.27,2.54-1.72,3.87a577.65,577.65,0,0,1-85.46,161.24c-18.93,25.23-38.05,50.29-62.1,71-34.43,29.68-73.32,42.39-118.75,32.05-20.85-4.74-40.69-12.21-60.57-19.72-24.22-9.14-49.1-15.47-75.06-16.52-28.08-1.14-55.27,4-81.74,13.08-18.61,6.38-36.91,13.73-55.69,19.52C310.34,1020.93,297.16,1022.8,284.26,1025.57Z"/><path class="cls-1" d="M647.14,0c.05,11.64.68,23.31,0,34.92-1.73,31.42-11.2,60.65-26.74,87.91-21.39,37.52-49.85,68.59-86.1,92.2-29.06,18.93-60.9,28.8-95.86,27.79-4-.11-5.58-1-6-5.47-2.67-31.71,3.36-61.89,15.68-90.92,16.52-38.89,40.93-72,74.69-97.61A247.08,247.08,0,0,1,627.93,2c4.64-.87,9.35-1.36,14-2Z"/></g></svg>